<svg xmlns="http://www.w3.org/2000/svg" width="512" height="512" viewBox="0 0 512 511" style="enable-background:new 0 0 512 512" xml:space="preserve"><path xmlns="http://www.w3.org/2000/svg" d="m511.742 151.738-6.863-25.61-5.445-20.343-.059-.2-3.973-14.831c-1.074-4-5.187-6.379-9.187-5.3a7.5 7.5 0 0 0-5.305 9.183l2.086 7.789-23.738 6.36-16.977-63.36c-1.074-4-5.187-6.38-9.187-5.305a7.506 7.506 0 0 0-5.305 9.188l16.98 63.359-3.746 1.004a7.5 7.5 0 0 0-5.3 9.187c1.07 4 5.183 6.38 9.183 5.301l10.739-2.875c.085-.02.167-.043.253-.062.079-.024.157-.043.23-.07l30.75-8.239 4.403 16.43-30.785 8.25c-.066.015-.137.031-.203.05-.063.016-.129.036-.195.055l-57.442 15.39c-.004 0-.008.005-.011.005h-.008l-172.813 46.304a5.306 5.306 0 0 0-.125.036c-.039.007-.074.02-.113.03l-37.129 9.946-4.402-16.43 152.257-40.796.286-.07c.093-.024.183-.052.273-.083l57.176-15.316c.066-.02.137-.035.203-.05l.195-.06 17.485-4.683c4-1.07 6.375-5.188 5.304-9.188a7.501 7.501 0 0 0-9.187-5.3l-10.438 2.796-20.406-76.144a7.506 7.506 0 0 0-9.187-5.305 7.501 7.501 0 0 0-5.301 9.188l20.406 76.14-43.16 11.567-24.309-90.711c-1.07-4-5.183-6.38-9.183-5.3a7.498 7.498 0 0 0-5.305 9.183l24.309 90.71-43.168 11.567-22.563-84.2a7.495 7.495 0 0 0-9.183-5.3 7.498 7.498 0 0 0-5.305 9.184l22.559 84.199-43.16 11.566-22.56-84.199a7.501 7.501 0 0 0-9.187-5.3 7.5 7.5 0 0 0-5.304 9.183l22.558 84.199-30.43 8.152a19.9 19.9 0 0 0-16.378-10.73l-6.696-.441c-4.129-.282-7.703 2.855-7.976 6.992a7.499 7.499 0 0 0 6.992 7.976l6.695.442a4.897 4.897 0 0 1 4.414 3.625l.801 2.98c.012.055.027.11.04.164.015.059.03.113.05.172l9.082 33.902a4.9 4.9 0 0 1-2.012 5.348L140.2 258.816c-.078.051-.156.106-.23.16l-23.371 15.63c-.114.07-.227.144-.336.222l-.77.516a5.517 5.517 0 0 1-6.23-.09l-11-7.824c-.008-.004-.016-.012-.024-.02l-9.867-7.015a1.087 1.087 0 0 1-.418-.598l-2.629-9.817a.624.624 0 0 1-.02-.082.553.553 0 0 0-.027-.085l-10.914-40.747c-.062-.242-.043-.5.063-.726l10.664-23.313c.941-2.058 3.09-3.332 5.351-3.191l.97.062c.097.008.19.016.288.02l27.965 1.844c.207.023.414.039.621.043l9.418.62a7.504 7.504 0 0 0 7.98-6.988c.27-4.132-2.859-7.707-6.992-7.976l-.62-.043 5.308-19.793c1.898-7.14-2.36-14.504-9.5-16.426l-.524-.14 9.497-35.438 21.601-13.394a7.528 7.528 0 0 0 3.293-4.434l12.16-45.387c1.864-6.949.907-14.207-2.691-20.437S159.813 3.28 152.863 1.422c-14.343-3.848-29.14 4.7-32.984 19.043l-12.16 45.387a7.48 7.48 0 0 0 .633 5.484l12.011 22.402-9.5 35.446-.52-.141a13.285 13.285 0 0 0-10.183 1.332 13.338 13.338 0 0 0-6.254 8.148L86.223 167.2c-6.391 1.246-11.993 5.512-14.774 11.586l-10.664 23.313a16.11 16.11 0 0 0-.91 10.851l.71 2.653-55.026 14.75a7.495 7.495 0 0 0-4.555 3.496 7.518 7.518 0 0 0-.75 5.687l8.293 30.922a7.498 7.498 0 0 0 9.183 5.3l55.024-14.737.71 2.656a16.089 16.089 0 0 0 6.216 8.941l6.73 4.785v219.352c0 4.144 3.356 7.5 7.5 7.5a7.496 7.496 0 0 0 7.496-7.5V288.039a20.53 20.53 0 0 0 11.04 3.203c2.269 0 4.538-.37 6.706-1.117l21.004 20.996a13.364 13.364 0 0 0 9.48 3.918 13.36 13.36 0 0 0 9.485-3.922l.387-.387 25.945 25.942.8 25.41a7.493 7.493 0 0 0 2.192 5.066l33.227 33.223c5.086 5.086 11.851 7.89 19.043 7.89 7.195 0 13.957-2.804 19.043-7.89 5.086-5.086 7.887-11.848 7.887-19.043 0-7.191-2.801-13.957-7.887-19.043L226.53 329.06a7.493 7.493 0 0 0-5.066-2.192l-25.406-.8-25.942-25.946.383-.383c2.535-2.535 3.93-5.902 3.93-9.488s-1.395-6.953-3.93-9.488l-14.48-14.48 31.062-20.774a19.908 19.908 0 0 0 8.82-17.492l30.434-8.153 22.559 84.211a7.502 7.502 0 0 0 7.238 5.563 7.5 7.5 0 0 0 7.25-9.441l-22.559-84.216 43.16-11.566 22.559 84.211a7.506 7.506 0 0 0 7.242 5.563 7.5 7.5 0 0 0 7.25-9.441l-22.562-84.212 43.16-11.566 24.312 90.719a7.502 7.502 0 0 0 7.239 5.562 7.503 7.503 0 0 0 7.25-9.445l-24.309-90.72 43.16-11.562 20.41 76.145a7.502 7.502 0 0 0 7.239 5.562 7.506 7.506 0 0 0 7.25-9.445l-20.41-76.144 43.164-11.567 16.976 63.364a7.502 7.502 0 0 0 7.238 5.562 7.501 7.501 0 0 0 7.25-9.445l-16.976-63.364 23.742-6.359 2.086 7.79a7.502 7.502 0 0 0 9.187 5.304 7.504 7.504 0 0 0 5.301-9.188zM134.367 24.348c1.703-6.352 8.258-10.137 14.613-8.438 3.079.824 5.653 2.8 7.247 5.559a11.857 11.857 0 0 1 1.187 9.054l-11.39 42.52-14.813 9.187-8.238-15.363zM107.98 143.94l12.493 3.34-5.664 21.13-13.153-.868zM21.09 259.332l-4.406-16.434 47.78-12.808 4.407 16.441zm196.937 82.434 31.125 31.125c2.254 2.254 3.496 5.25 3.496 8.437s-1.242 6.184-3.496 8.438a11.848 11.848 0 0 1-8.437 3.496c-3.184 0-6.18-1.242-8.434-3.496l-31.125-31.125-.55-17.422zm-59.25-51.516-4.496 4.496c-.023.024-.05.047-.074.074-.023.024-.05.051-.074.078l-4.496 4.493-17.285-17.278 10.957-7.328zm0 0" data-original="#000000"/></svg>