<svg xmlns="http://www.w3.org/2000/svg" width="512" height="512" style="enable-background:new 0 0 512 512" xml:space="preserve"><path xmlns="http://www.w3.org/2000/svg" d="M501.5 248.044h-36.206c-12.867-46.294-41.077-87.407-79.921-116.257a7.5 7.5 0 0 0-8.943 12.042c35.043 26.027 60.79 62.764 73.253 104.215h-14.097c-11.807-36.239-34.857-68.745-65.373-92.001-.41-.313-.826-.615-1.238-.924a7.602 7.602 0 0 0-.612-.457c-32.718-24.325-71.515-37.177-112.362-37.177-40.849 0-79.647 12.853-112.365 37.179a7.61 7.61 0 0 0-.605.452c-.414.31-.831.613-1.242.927-30.516 23.256-53.566 55.763-65.373 92.001H62.322c11.838-39.309 35.8-74.668 68.211-100.35 36.019-28.542 79.405-43.627 125.467-43.627 32.096 0 62.784 7.298 91.209 21.69a7.5 7.5 0 1 0 6.775-13.382C323.44 96.909 290.474 89.066 256 89.066c-49.479 0-96.086 16.208-134.783 46.871-35.988 28.517-62.28 68.152-74.51 112.107H10.5c-5.79 0-10.5 4.71-10.5 10.5v37.375c0 5.79 4.71 10.5 10.5 10.5h31.676v27.515h-2.854c-5.231 0-9.705 3.909-10.406 9.094l-1.633 12.083a7.5 7.5 0 0 0 6.428 8.437 7.497 7.497 0 0 0 8.437-6.428l1.106-8.186h44.809l7.973 59H35.281l2.162-16a7.5 7.5 0 1 0-14.865-2.009l-2.851 21.101a10.5 10.5 0 0 0 10.405 11.907h71.053a10.501 10.501 0 0 0 10.406-11.906l-9.189-68c-.701-5.184-5.174-9.093-10.405-9.093h-2.855v-27.515H184.4a7.5 7.5 0 0 0 0-15H15v-28.375h482v28.375H219.4a7.5 7.5 0 0 0 0 15h203.459v27.515h-2.854c-5.231 0-9.705 3.909-10.406 9.094l-9.188 68a10.503 10.503 0 0 0 10.405 11.906h71.053a10.499 10.499 0 0 0 10.405-11.906l-9.189-67.996c-.697-5.187-5.171-9.098-10.405-9.098h-2.854v-27.515H501.5c5.79 0 10.5-4.71 10.5-10.5v-37.375c0-5.79-4.71-10.5-10.5-10.5zm-427.359 85.89H57.176v-27.515h16.965zm345.602-85.89H371.69v-71.327c21.642 19.393 38.31 44.115 48.053 71.327zm-264.433-83.33c12.226-8.735 25.334-15.764 39.09-20.998v104.328h-39.09zm54.09-25.92a173.105 173.105 0 0 1 39.1-6.149v115.399h-39.1zm54.1-6.149a173.105 173.105 0 0 1 39.1 6.149v109.25h-39.1zm54.1 11.071c13.756 5.234 26.865 12.263 39.091 20.998v83.33H317.6zm-177.29 33.001v71.327H92.257c9.743-27.212 26.412-51.934 48.053-71.327zm336.409 231.217h-60.754l7.973-59h44.809zm-21.895-74h-16.965v-27.515h16.965z" data-original="#000000"/></svg>