<svg xmlns="http://www.w3.org/2000/svg" width="512" height="512" viewBox="0 0 609.639 609.639" style="enable-background:new 0 0 512 512" xml:space="preserve"><g xmlns="http://www.w3.org/2000/svg"><path d="M579.157 345.462h-60.781l-56.798-168.667c-6.991-20.638-26.351-34.531-48.141-34.546H314.98v-20.321h127.008a15.242 15.242 0 0 0 9.145-27.433l-37.95-28.45 37.95-28.45a15.24 15.24 0 0 0-9.145-27.433H314.98C314.98 4.549 310.431 0 304.82 0s-10.161 4.549-10.161 10.161v132.088h-98.457c-21.796-.004-41.166 13.896-48.141 34.546L91.263 345.462H30.482C13.647 345.462 0 359.109 0 375.944v40.643a30.288 30.288 0 0 0 7.925 20.321A30.288 30.288 0 0 0 0 457.229v40.643a30.288 30.288 0 0 0 7.925 20.321A30.292 30.292 0 0 0 0 538.514v40.643c0 16.835 13.647 30.482 30.482 30.482h101.607a30.288 30.288 0 0 0 20.321-7.925 30.283 30.283 0 0 0 20.321 7.925h111.767a30.288 30.288 0 0 0 20.321-7.925 30.283 30.283 0 0 0 20.321 7.925h111.767a30.288 30.288 0 0 0 20.321-7.925 30.285 30.285 0 0 0 20.321 7.925h101.606c16.835 0 30.482-13.647 30.482-30.482v-40.643a30.288 30.288 0 0 0-7.925-20.321 30.285 30.285 0 0 0 7.925-20.321v-40.643a30.288 30.288 0 0 0-7.925-20.321 30.285 30.285 0 0 0 7.925-20.321v-40.643c.002-16.835-13.645-30.482-30.48-30.482zm-152.41-314.98-31.173 23.369a15.24 15.24 0 0 0 0 24.386l31.173 23.369H314.98V30.482zm162.571 345.462v40.643c0 5.612-4.549 10.161-10.161 10.161H467.39v-50.803c0-5.612 4.549-10.161 10.161-10.161h101.606c5.612-.001 10.161 4.548 10.161 10.16zm0 81.285v40.643c0 5.612-4.549 10.161-10.161 10.161H467.39v-60.964h111.767c5.612 0 10.161 4.549 10.161 10.16zM20.321 497.872v-40.643c0-5.612 4.549-10.161 10.161-10.161h111.767v60.964H30.482c-5.612.001-10.161-4.549-10.161-10.16zm142.249-50.803h121.928c5.612 0 10.161 4.549 10.161 10.161v50.803H162.57zm152.41 10.16c0-5.612 4.549-10.161 10.161-10.161h121.928v60.964H314.98zM167.315 183.318a30.482 30.482 0 0 1 28.887-20.748h217.235a30.482 30.482 0 0 1 28.887 20.718l54.613 162.174H477.55c-16.835 0-30.482 13.647-30.482 30.482v50.803H325.141a30.288 30.288 0 0 0-20.321 7.925 30.285 30.285 0 0 0-20.321-7.925H162.57v-50.803c0-16.835-13.647-30.482-30.482-30.482h-19.387zM20.321 375.944c0-5.612 4.549-10.161 10.161-10.161h101.607c5.612 0 10.161 4.549 10.161 10.161v50.803H30.482c-5.612 0-10.161-4.549-10.161-10.161zm111.767 213.374H30.482c-5.612 0-10.161-4.549-10.161-10.161v-40.643c0-5.612 4.549-10.161 10.161-10.161h111.767v50.803c0 5.613-4.549 10.162-10.161 10.162zm152.41 0H172.731c-5.612 0-10.161-4.549-10.161-10.161v-50.803h132.088v50.803c.001 5.612-4.548 10.161-10.16 10.161zm152.41 0H325.141c-5.612 0-10.161-4.549-10.161-10.161v-50.803h132.088v50.803c.001 5.612-4.548 10.161-10.16 10.161zm152.41-10.161c0 5.612-4.549 10.161-10.161 10.161H477.551c-5.612 0-10.161-4.549-10.161-10.161v-50.803h111.767c5.612 0 10.161 4.549 10.161 10.161z" data-original="#000000"/><path d="M179.559 294.659H430.08a20.322 20.322 0 0 0 19.255-26.814l-13.676-40.643a20.322 20.322 0 0 0-19.265-13.829H193.245a20.32 20.32 0 0 0-19.254 13.829l-13.686 40.643a20.322 20.322 0 0 0 19.254 26.814zm13.686-60.964h223.148l13.717 40.643H179.559z" data-original="#000000"/></g></svg>