<svg xmlns="http://www.w3.org/2000/svg" width="512" height="512" style="enable-background:new 0 0 512 512" xml:space="preserve"><g xmlns="http://www.w3.org/2000/svg"><path d="M504.5 433.617h-8.597v-9.146h2.561a7.5 7.5 0 0 0 0-15h-20.122a7.5 7.5 0 0 0 0 15h2.561v9.146h-19.689l-12.745-18.99v-89.855c13.09-1.602 25.204-7.454 34.693-16.916 11.284-11.253 17.499-26.227 17.499-42.163 0-11.723-3.412-23.071-9.868-32.818-1.989-3.003-2.629-6.626-1.803-10.2a49.4 49.4 0 0 0 1.262-11.107c0-10.801-3.442-21.051-9.956-29.642-2.829-3.73-3.731-8.325-2.415-12.291a38.653 38.653 0 0 0 1.946-13.314c-.563-19.806-16.479-36.29-36.232-37.526-10.817-.673-21.114 3.022-28.987 10.418-7.764 7.292-12.216 17.582-12.216 28.23 0 4.053.626 8.05 1.86 11.88 1.371 4.253.628 8.806-1.987 12.178-6.727 8.675-10.282 19.072-10.282 30.067 0 3.749.425 7.486 1.263 11.106.808 3.496.084 7.314-1.986 10.478-7.035 10.75-10.346 23.257-9.578 36.167 1.712 28.743 23.854 51.803 51.787 55.41v67.548l-82.672-123.181a7.5 7.5 0 0 0-12.455 8.359l111.374 165.946v52.593H340.35l33.269-29.111a7.502 7.502 0 0 0 .501-10.807L263.5 339.53v-97.615a7.5 7.5 0 0 0-15 0v97.615L137.88 456.076a7.504 7.504 0 0 0-2.052 5.51 7.494 7.494 0 0 0 2.553 5.297l33.269 29.111H62.285v-52.593L256 154.766l62.844 93.638a7.5 7.5 0 0 0 12.455-8.359l-69.071-102.917a7.5 7.5 0 0 0-12.456 0l-44.003 65.565c-1.619-8.663-5.211-16.812-10.64-23.97-3.689-4.872-4.856-10.893-3.117-16.122a45.229 45.229 0 0 0 2.255-15.436c-.66-22.972-19.125-42.093-42.039-43.53-15.743-.985-30.3 6.393-39.116 18.372.115-.528.249-1.051.419-1.565a44.856 44.856 0 0 0 2.258-15.447c-.653-22.978-19.115-42.1-42.031-43.534-12.548-.78-24.497 3.507-33.63 12.086-9.006 8.46-14.172 20.397-14.172 32.75 0 4.702.726 9.339 2.158 13.782 1.794 5.566.813 11.534-2.622 15.965a57.628 57.628 0 0 0-3.236 4.625 7.499 7.499 0 0 0 2.356 10.341 7.499 7.499 0 0 0 10.341-2.356 42.814 42.814 0 0 1 2.392-3.418c6.474-8.349 8.36-19.474 5.045-29.758a29.88 29.88 0 0 1-1.435-9.18c0-8.349 3.353-16.097 9.442-21.817 6.083-5.714 14.042-8.571 22.424-8.048 15.251.955 27.539 13.688 27.974 28.989.1 3.53-.405 6.994-1.501 10.296-3.288 9.912-1.268 21.084 5.406 29.885 5.615 7.407 8.583 16.248 8.583 25.566a42.7 42.7 0 0 1-1.089 9.597c-1.992 8.612-.359 17.741 4.479 25.046 5.944 8.974 9.085 19.426 9.085 30.229 0 14.687-5.728 28.487-16.127 38.858-8.613 8.589-19.572 13.953-31.428 15.524v-31.137l25.146-25.146a7.5 7.5 0 0 0 0-10.606 7.5 7.5 0 0 0-10.606 0l-14.539 14.539v-60.465a7.5 7.5 0 0 0-15 0v31.938L50.028 196.37a7.5 7.5 0 0 0-10.606 0 7.5 7.5 0 0 0 0 10.606l23.783 23.783v59.613c-25.447-3.584-45.534-24.703-47.098-50.965-.709-11.913 2.339-23.441 8.817-33.339 4.93-7.534 6.623-16.756 4.647-25.299a42.622 42.622 0 0 1-.612-3.21 7.5 7.5 0 0 0-14.831 2.245 57.49 57.49 0 0 0 .829 4.343c1.06 4.583.118 9.579-2.583 13.708-8.256 12.614-12.142 27.292-11.24 42.444 2.036 34.175 28.68 61.51 62.071 65.186V415.04l.003.069-12.422 18.508H31.097v-9.146h2.561a7.5 7.5 0 0 0 0-15H13.536a7.5 7.5 0 0 0 0 15h2.561v9.146H7.5a7.5 7.5 0 0 0 0 15h8.597v54.877a7.5 7.5 0 0 0 15 0v-54.877h16.188v54.877a7.5 7.5 0 0 0 7.5 7.5h402.43a7.5 7.5 0 0 0 7.5-7.5v-54.877h16.188v54.877a7.5 7.5 0 0 0 15 0v-54.877h8.597a7.5 7.5 0 0 0 0-15zm-107.844-165.19c-.576-9.67 1.898-19.028 7.155-27.062 4.298-6.567 5.774-14.611 4.049-22.072a34.3 34.3 0 0 1-.877-7.726c0-7.637 2.467-14.855 7.135-20.875 5.653-7.291 7.302-17 4.411-25.971a23.675 23.675 0 0 1-1.137-7.278c0-6.62 2.659-12.763 7.486-17.297 4.447-4.177 10.161-6.428 16.232-6.428.514 0 1.03.016 1.549.048 12.09.757 21.831 10.852 22.175 22.981a23.69 23.69 0 0 1-1.189 8.164c-2.874 8.658-1.117 18.407 4.699 26.077 4.52 5.961 6.909 13.078 6.909 20.58 0 2.612-.295 5.212-.876 7.727-1.739 7.517-.313 15.486 3.912 21.864a44.293 44.293 0 0 1 7.374 24.535c0 11.922-4.649 23.124-13.091 31.542-6.649 6.63-15.021 10.891-24.101 12.39v-24.022l20.616-20.616a7.5 7.5 0 0 0 0-10.606 7.5 7.5 0 0 0-10.606 0l-10.009 10.009V216.94a7.5 7.5 0 0 0-15 0v23.648l-6.091-6.091a7.5 7.5 0 0 0-10.606 0 7.5 7.5 0 0 0 0 10.606l16.697 16.697v47.764c-19.982-3.476-35.576-20.311-36.816-41.137zm-276.432 17.092c13.243-13.206 20.536-30.777 20.536-49.479 0-13.757-4.004-27.074-11.58-38.512-2.612-3.944-3.454-8.697-2.371-13.383a57.657 57.657 0 0 0 1.475-12.977c0-10.491-2.789-20.532-8.099-29.389 3.225-14.076 16.393-24.091 31.106-23.173 15.252.957 27.543 13.69 27.982 28.974a30.253 30.253 0 0 1-1.499 10.304c-3.294 9.905-1.276 21.081 5.401 29.899 5.617 7.406 8.585 16.244 8.585 25.558 0 3.216-.367 6.452-1.084 9.587a32.185 32.185 0 0 0-.555 3.082l-33.264 49.563v-5.488a7.5 7.5 0 0 0-15 0v27.838l-18.975 28.273c-10.556-5.891-19.005-15.192-23.842-26.184a69.835 69.835 0 0 0 21.184-14.493zm-42.02 20.013c2.18-.226 4.34-.545 6.471-.969 5.875 14.228 16.484 26.324 29.839 34.101l-36.31 54.102zm245.215 185.344-45.926-114.815 80.371 84.676zm-14.108 5.118H202.689L256 362.717zm-74.804-119.932-45.926 114.815-34.445-30.139z" data-original="#000000"/><path d="M334.589 140.759c38.53 0 69.876-31.347 69.876-69.876 0-38.53-31.347-69.877-69.876-69.877a69.909 69.909 0 0 0-52.57 23.84 7.501 7.501 0 0 0 11.281 9.887 54.91 54.91 0 0 1 41.289-18.727c30.259 0 54.876 24.618 54.876 54.877s-24.618 54.876-54.876 54.876c-30.259 0-54.877-24.618-54.877-54.876 0-2.824.216-5.658.642-8.424a7.5 7.5 0 0 0-14.825-2.283 70.554 70.554 0 0 0-.816 10.706c-.001 38.531 31.346 69.877 69.876 69.877z" data-original="#000000"/></g></svg>