<svg xmlns="http://www.w3.org/2000/svg" width="512" height="512" viewBox="0 0 509.119 509.119" style="enable-background:new 0 0 512 512" xml:space="preserve"><g xmlns="http://www.w3.org/2000/svg"><path d="M454.613 460.49h-10.27V306.075c0-4.142-3.357-7.5-7.5-7.5s-7.5 3.358-7.5 7.5V460.49h-15.681v-56.981c0-28.862-23.48-52.343-52.343-52.343s-52.343 23.481-52.343 52.343v23.352h-36.75V306.696c0-10.557-8.589-19.146-19.146-19.146H124.32c-10.557 0-19.146 8.589-19.146 19.146v56.332c0 4.142 3.357 7.5 7.5 7.5s7.5-3.358 7.5-7.5v-22.819h137.053v86.652H120.174V394.99c0-4.142-3.357-7.5-7.5-7.5s-7.5 3.358-7.5 7.5v31.871H74.052V219.823c1.595.272 3.23.421 4.901.421 8.559 0 16.265-3.717 21.593-9.619 5.328 5.902 13.035 9.619 21.594 9.619s16.265-3.716 21.593-9.619c5.328 5.902 13.034 9.619 21.593 9.619s16.265-3.717 21.593-9.619c5.328 5.902 13.035 9.619 21.594 9.619s16.265-3.716 21.593-9.619c5.328 5.902 13.034 9.619 21.593 9.619s16.265-3.716 21.593-9.619c5.328 5.902 13.034 9.619 21.593 9.619s16.265-3.717 21.594-9.619c5.328 5.902 13.034 9.619 21.593 9.619s16.265-3.716 21.593-9.619c5.328 5.902 13.034 9.619 21.593 9.619s16.265-3.717 21.594-9.619c5.328 5.902 13.034 9.619 21.593 9.619 1.671 0 3.307-.149 4.901-.421v54.289c0 4.142 3.357 7.5 7.5 7.5s7.5-3.358 7.5-7.5v-61.368c0-.129-.013-.255-.019-.382 5.663-5.311 9.211-12.852 9.211-21.21v-87.561c0-9.177-7.466-16.643-16.643-16.643h-24.508c-4.143 0-7.5 3.358-7.5 7.5s3.357 7.5 7.5 7.5h24.508c.905 0 1.643.737 1.643 1.643v20.422H64.861v-20.422c0-.906.737-1.643 1.643-1.643h159.65c8.163 2.543 16.977 3.88 26.045 3.88s17.882-1.337 26.045-3.88h102.18c4.143 0 7.5-3.358 7.5-7.5s-3.357-7.5-7.5-7.5h-16.127c.005-.16.016-.319.016-.48V19.359a15.277 15.277 0 0 0-8.006-13.445 15.28 15.28 0 0 0-15.636.632l-29.336 19.115c-3.082-3.946-6.849-7.609-11.282-10.889C287.18 5.247 270.185 0 252.198 0s-34.982 5.247-47.854 14.773c-4.433 3.281-8.201 6.943-11.282 10.889L163.725 6.547a15.28 15.28 0 0 0-15.636-.632 15.279 15.279 0 0 0-8.006 13.445v67.109c0 .161.011.32.016.48H66.503c-9.177 0-16.643 7.466-16.643 16.643v87.561c0 8.358 3.548 15.899 9.211 21.21-.006.127-.019.253-.019.382v214.776c-11.001 2.575-19.221 12.459-19.221 24.234v43.284c0 7.764 6.315 14.08 14.079 14.08h400.702c8.092 0 14.675-6.583 14.675-14.675v-19.279c0-8.092-6.583-14.675-14.674-14.675zM120.174 325.208v-18.513a4.15 4.15 0 0 1 4.146-4.146h128.76a4.15 4.15 0 0 1 4.146 4.146v18.513zM236.181 89.117l46.92-67.229c5.326 2.636 9.95 5.927 13.621 9.714l-41.281 59.151a77.386 77.386 0 0 1-3.244.075c-5.574 0-10.954-.599-16.016-1.711zm69.884-36.203c0 14.739-12.019 27.531-29.513 33.801l28.55-40.909c.623 2.304.963 4.678.963 7.108zm-1.024 34.034a55.248 55.248 0 0 0 6.293-6.782l10.409 6.782zm43.819-67.834c.092-.059.146-.095.299-.012s.153.149.153.257v67.109c0 .109 0 .174-.153.257-.151.084-.206.048-.299-.012L318.622 67.01c1.6-4.526 2.443-9.253 2.443-14.097s-.843-9.571-2.443-14.097zm-80.468-2.36-46.944 67.264c-5.333-2.62-9.965-5.897-13.652-9.669l41.375-59.284a75.86 75.86 0 0 1 3.027-.063 74.511 74.511 0 0 1 16.194 1.752zm-40.27 2.258L199.349 60.24a27.139 27.139 0 0 1-1.019-7.327c0-14.816 12.147-27.667 29.792-33.901zm-73.039.347c0-.108 0-.174.153-.257.153-.082.208-.046.299.012l30.238 19.703c-1.6 4.526-2.443 9.253-2.443 14.097s.843 9.571 2.443 14.097l-30.238 19.703c-.092.059-.147.095-.299.012-.153-.083-.153-.148-.153-.257zm37.978 60.807a55.175 55.175 0 0 0 6.293 6.782h-16.702zm245.473 110.986c0 7.771-6.322 14.093-14.093 14.093s-14.093-6.322-14.093-14.093v-52.139h28.186zm-43.185 0c0 7.771-6.322 14.093-14.094 14.093-7.771 0-14.093-6.322-14.093-14.093v-52.139h28.187zm-43.187 0c0 7.771-6.322 14.093-14.093 14.093s-14.093-6.322-14.093-14.093v-52.139h28.186zm-43.185 0c0 7.771-6.322 14.093-14.094 14.093-7.771 0-14.093-6.322-14.093-14.093v-52.139h28.187zm-43.187 0c0 7.771-6.322 14.093-14.093 14.093s-14.093-6.322-14.093-14.093v-52.139h28.186zm-43.185 0c0 7.771-6.322 14.093-14.093 14.093s-14.094-6.322-14.094-14.093v-52.139h28.187zm-43.187 0c0 7.771-6.322 14.093-14.093 14.093s-14.093-6.322-14.093-14.093v-52.139h28.186zm-43.185 0c0 7.771-6.322 14.093-14.093 14.093s-14.094-6.322-14.094-14.093v-52.139h28.187zm-43.187 0c0 7.771-6.322 14.093-14.093 14.093s-14.093-6.322-14.093-14.093v-52.139h28.186zm230.931 212.357c0-20.591 16.752-37.343 37.343-37.343s37.343 16.752 37.343 37.343v90.61h-74.686V434.361zm-27.889 90.61H54.831v-42.364c0-5.456 4.438-9.894 9.894-9.894h244.252v52.258zm158.199 0h-40.625V475.49h40.625z" data-original="#000000"/><path d="M329.042 263.994c-11.064 0-20.065 9.001-20.065 20.065v21.981c0 11.064 9.001 20.065 20.065 20.065h61.241c11.064 0 20.065-9.001 20.065-20.065v-21.98c0-11.064-9.001-20.065-20.065-20.065h-61.241zm66.307 20.066v21.981a5.07 5.07 0 0 1-5.065 5.065h-61.241a5.07 5.07 0 0 1-5.065-5.065V284.06a5.07 5.07 0 0 1 5.065-5.065h61.241a5.07 5.07 0 0 1 5.065 5.065z" data-original="#000000"/></g></svg>