<svg xmlns="http://www.w3.org/2000/svg" width="512" height="512" viewBox="0 0 511.998 511.998" style="enable-background:new 0 0 512 512" xml:space="preserve"><g xmlns="http://www.w3.org/2000/svg"><path d="M256.01 232.447a7.5 7.5 0 1 1 0-15 7.5 7.5 0 0 1 0 15z" data-original="#000000"/><path d="M426.842 139.78h-8.031v-16.062h8.031c4.143 0 7.5-3.358 7.5-7.5s-3.357-7.5-7.5-7.5h-8.031v-8.031c0-4.142-3.357-7.5-7.5-7.5s-7.5 3.358-7.5 7.5v8.031h-8.031c-4.143 0-7.5 3.358-7.5 7.5s3.357 7.5 7.5 7.5h8.031v16.062h-8.031a7.5 7.5 0 0 0-7.5 7.5v39.098h-62.656V147.28a7.5 7.5 0 0 0-7.5-7.5h-8.03V69.625c0-27.283-20.303-49.913-46.594-53.575V7.5a7.5 7.5 0 0 0-15 0v8.55c-26.29 3.662-46.593 26.292-46.593 53.575v70.156h-8.031a7.5 7.5 0 0 0-7.5 7.5v39.098H123.72V147.28a7.5 7.5 0 0 0-7.5-7.5h-8.031v-16.062h8.031a7.5 7.5 0 0 0 0-15h-8.031v-8.031a7.5 7.5 0 0 0-15 0v8.031h-8.031a7.5 7.5 0 0 0 0 15h8.031v16.062h-8.031a7.5 7.5 0 0 0-7.5 7.5l.002 357.218a7.5 7.5 0 0 0 7.5 7.5h341.68a7.5 7.5 0 0 0 7.5-7.5v-138.97c0-4.142-3.357-7.5-7.5-7.5s-7.5 3.358-7.5 7.5v131.47h-16.06V349.185c0-22.884-35.78-54.211-62.125-53.705v-31.981h78.185v69.34c0 4.142 3.357 7.5 7.5 7.5s7.5-3.358 7.5-7.5l.003-185.558a7.502 7.502 0 0 0-7.501-7.501zm-23.563 15h16.062v31.593h-16.062zm-92.656 0v31.593h-47.124v-8.297h8.031c4.143 0 7.5-3.358 7.5-7.5s-3.357-7.5-7.5-7.5h-8.031v-8.296zm10.896 93.718H190.478c10.828-27.413 36.075-47.083 66.263-47.12 30.32-.038 53.352 19.62 64.778 47.12zM216.906 69.625c0-21.556 17.537-39.093 39.093-39.093 21.557 0 39.094 17.537 39.094 39.093v8.031h-78.187zm0 23.031h78.187v47.125h-78.187zm-15.532 62.124h47.125v8.296h-8.031a7.5 7.5 0 0 0 0 15h8.031v8.297h-47.125zm-108.718 0h16.062v31.593H92.656zm78.187 342.216h-47.125V356.685h47.125zm0-155.311h-43.619a57.056 57.056 0 0 1 43.619-31.104zm-21.654-78.187h21.654v31.981c-26.844-.887-62.125 30.409-62.125 53.706v147.813h-16.06v-233.5h23.84a7.5 7.5 0 0 0 0-15h-23.84v-47.12h115.641c-16.506 11.615-26.564 29.101-34.592 47.12h-24.519a7.5 7.5 0 1 0 .001 15zM264.03 496.996h-16.062v-47.125h16.062zm0-62.124h-16.062v-8.031c0-4.428 3.603-8.031 8.031-8.031 4.429 0 8.031 3.603 8.031 8.031zm31.063 62.124H279.03V426.84c0-12.7-10.332-23.031-23.031-23.031-12.7 0-23.031 10.332-23.031 23.031v70.156h-16.059v-70.67c.276-21.32 17.705-38.579 39.09-38.579 21.557 0 39.094 17.537 39.094 39.093zm0-107.506c-9.856-10.311-23.738-16.743-39.094-16.743-15.354 0-29.234 6.43-39.09 16.739v-23.958a7.5 7.5 0 0 0-15 0v60.722a58.02 58.02 0 0 0-.003.59v70.156h-16.062V263.498h16.066v69.34a7.5 7.5 0 0 0 15 0v-69.34h78.184V389.49zm31.061 107.506h-16.062V263.498h16.062zm62.125-140.311v140.312h-47.125V356.685zm-3.505-15h-43.62v-31.104a57.06 57.06 0 0 1 43.62 31.104zm34.565-93.187H338.29c-8.026-18.019-18.085-35.505-34.591-47.12H419.34v47.12z" data-original="#000000"/><path d="M240.468 100.952a7.5 7.5 0 0 0-7.5 7.5v15.531a7.5 7.5 0 0 0 15 0v-15.531a7.5 7.5 0 0 0-7.5-7.5zM271.53 100.952a7.5 7.5 0 0 0-7.5 7.5v15.531c0 4.142 3.357 7.5 7.5 7.5s7.5-3.358 7.5-7.5v-15.531a7.5 7.5 0 0 0-7.5-7.5zM255.999 325.623c12.699 0 23.031-10.332 23.031-23.031s-10.332-23.031-23.031-23.031c-12.7 0-23.031 10.332-23.031 23.031s10.331 23.031 23.031 23.031zm0-31.063c4.429 0 8.031 3.603 8.031 8.031s-3.603 8.031-8.031 8.031-8.031-3.603-8.031-8.031 3.603-8.031 8.031-8.031zM147.281 465.403a7.5 7.5 0 0 0 7.5-7.5v-77.656a7.5 7.5 0 0 0-15 0v77.656a7.5 7.5 0 0 0 7.5 7.5zM364.717 465.403a7.5 7.5 0 0 0 7.5-7.5v-77.656c0-4.142-3.357-7.5-7.5-7.5s-7.5 3.358-7.5 7.5v77.656a7.5 7.5 0 0 0 7.5 7.5z" data-original="#000000"/></g></svg>