<svg xmlns="http://www.w3.org/2000/svg" width="512" height="512" style="enable-background:new 0 0 512 512" xml:space="preserve"><g xmlns="http://www.w3.org/2000/svg"><path d="M458.147 322.008c0-.001 0-.001 0 0l-130.518-54.955v-55.541a7.5 7.5 0 0 0-15 0v95.31a7.5 7.5 0 0 0 4.589 6.912l99.621 41.945V497H311.597v-72.661c0-30.656-24.94-55.597-55.597-55.597s-55.597 24.941-55.597 55.597V497H95.161V355.679l11.443-4.818a7.5 7.5 0 0 0 4.001-9.823 7.5 7.5 0 0 0-9.823-4.002l-34.488 14.522c-.049.02-.197.083-.395.002s-.261-.229-.281-.278l-6.22-14.776a.517.517 0 0 1 .276-.675l124.696-52.504v18.514l-51.523 21.694a7.5 7.5 0 0 0-4.001 9.823 7.5 7.5 0 0 0 9.823 4.002l56.113-23.626a7.5 7.5 0 0 0 4.589-6.912V179.651L256 148.763l69.873 38.111a15.417 15.417 0 0 0 11.809 1.264 15.414 15.414 0 0 0 9.243-7.457l7.676-14.076c4.095-7.51 1.317-16.953-6.193-21.05L263.5 99.241V47.064h24.564a7.5 7.5 0 0 0 0-15H263.5V7.5a7.5 7.5 0 0 0-15 0v24.564h-24.564a7.5 7.5 0 0 0 0 15H248.5v52.177l-84.908 46.314c-7.51 4.096-10.288 13.539-6.192 21.05l7.676 14.075a15.414 15.414 0 0 0 9.243 7.457c1.451.427 2.929.638 4.4.638 1.927 0 3.839-.364 5.652-1.08v79.356L53.854 322.008c-7.885 3.32-11.599 12.436-8.279 20.319l6.219 14.775a15.414 15.414 0 0 0 8.446 8.35 15.412 15.412 0 0 0 11.876-.069l8.045-3.388V497H63.613a7.5 7.5 0 0 0 0 15h384.774a7.5 7.5 0 0 0 0-15h-16.548V361.995l8.045 3.387a15.492 15.492 0 0 0 6.02 1.225c1.982 0 3.965-.385 5.856-1.156a15.414 15.414 0 0 0 8.446-8.35l6.219-14.774c3.32-7.884-.394-17-8.278-20.319zm-279.595-148.26c-.205-.06-.282-.201-.308-.248l-7.675-14.075a.517.517 0 0 1 .206-.701L256 112.237l85.225 46.488c.25.136.342.45.206.7l-7.676 14.075a.493.493 0 0 1-.308.248c-.204.061-.346-.017-.393-.042l-73.464-40.07a7.5 7.5 0 0 0-7.183 0l-73.464 40.07a.488.488 0 0 1-.391.042zm118.045 250.591V497H263.5V384.448c18.813 3.53 33.097 20.069 33.097 39.891zm-81.194 0c0-19.822 14.284-36.361 33.097-39.891V497h-33.097zm237.198-87.831-6.219 14.775c-.021.049-.083.197-.281.278s-.346.018-.395-.002l-118.077-49.716v-18.514l124.696 52.504a.516.516 0 0 1 .276.675z" data-original="#000000"/><path d="M120.242 396.282v52.105a7.5 7.5 0 0 0 7.5 7.5h40.081a7.5 7.5 0 0 0 7.5-7.5v-52.105c0-15.186-12.354-27.54-27.541-27.54s-27.54 12.354-27.54 27.54zm40.081 0v44.605h-25.081v-44.605c0-6.915 5.625-12.54 12.541-12.54s12.54 5.625 12.54 12.54zM384.258 455.887a7.5 7.5 0 0 0 7.5-7.5v-52.105c0-15.186-12.354-27.54-27.541-27.54s-27.541 12.354-27.541 27.54v52.105a7.5 7.5 0 0 0 7.5 7.5zm-32.581-59.605c0-6.915 5.625-12.54 12.541-12.54s12.541 5.625 12.541 12.54v44.605h-25.081v-44.605zM224.452 231.952c0 17.396 14.152 31.548 31.548 31.548s31.548-14.153 31.548-31.548-14.152-31.549-31.548-31.549-31.548 14.153-31.548 31.549zm48.096 0c0 9.125-7.423 16.548-16.548 16.548s-16.548-7.424-16.548-16.548 7.423-16.548 16.548-16.548c9.125-.001 16.548 7.423 16.548 16.548z" data-original="#000000"/></g></svg>