<svg xmlns="http://www.w3.org/2000/svg" width="512" height="512" style="enable-background:new 0 0 512 512" xml:space="preserve"><g xmlns="http://www.w3.org/2000/svg"><path d="M504.5 497h-16.548V392.274a7.5 7.5 0 0 0-7.5-7.5h-64.645v-96.71a7.5 7.5 0 0 0-7.5-7.5H231.952a7.5 7.5 0 0 0-7.5 7.5v72.145a7.5 7.5 0 0 0 15 0v-64.645h161.355v89.21h-25.081v-56.629a7.5 7.5 0 0 0-7.5-7.5h-32.064a7.5 7.5 0 0 0-7.5 7.5v56.629h-17.064v-56.629a7.5 7.5 0 0 0-7.5-7.5h-32.064a7.5 7.5 0 0 0-7.5 7.5v56.629h-65.407l-7.775-233.234a7.5 7.5 0 0 0-7.496-7.25h-32.064a7.5 7.5 0 0 0-7.496 7.25l-7.775 233.234h-17.557L111.19 151.54a7.5 7.5 0 0 0-7.496-7.25H71.629a7.5 7.5 0 0 0-7.496 7.25l-3.207 96.196a7.5 7.5 0 0 0 7.246 7.746 7.487 7.487 0 0 0 7.746-7.246l.293-8.785H99.11l4.844 145.323H71.367l3.483-104.477a7.5 7.5 0 0 0-7.246-7.746c-4.156-.156-7.608 3.106-7.746 7.246l-3.5 104.977h-24.81a7.5 7.5 0 0 0-7.5 7.5V497H7.5a7.5 7.5 0 0 0 0 15h497a7.5 7.5 0 0 0 0-15zM96.439 159.291l1.103 33.097H77.78l1.103-33.097zm-19.728 65.161.569-17.064h20.762l.569 17.064zm266.95 111.193h17.064v49.129h-17.064zm-64.129 0h17.064v49.129h-17.064zm-122.09-128.258h20.762l.569 17.064h-21.9zm19.159-48.096 1.103 33.097h-19.762l1.103-33.097zm-20.228 80.161h22.9l4.844 145.323h-32.589zm316.579 160.322v65.161h-33.097v-40.597a7.5 7.5 0 0 0-7.5-7.5h-32.064a7.5 7.5 0 0 0-7.5 7.5v40.597h-17.065v-40.597a7.5 7.5 0 0 0-7.5-7.5h-32.064a7.5 7.5 0 0 0-7.5 7.5v40.597h-17.064v-40.597a7.5 7.5 0 0 0-7.5-7.5h-32.064a7.5 7.5 0 0 0-7.5 7.5v40.597H247.47v-40.597a7.5 7.5 0 0 0-7.5-7.5h-32.064a7.5 7.5 0 0 0-7.5 7.5v40.597h-17.064v-40.597a7.5 7.5 0 0 0-7.5-7.5h-32.064a7.5 7.5 0 0 0-7.5 7.5v40.597h-17.065v-40.597a7.5 7.5 0 0 0-7.5-7.5H79.645a7.5 7.5 0 0 0-7.5 7.5v40.597H39.048v-65.161zm-65.161 65.162v-33.097h17.064v33.097zm-64.13 0v-33.097h17.064v33.097zm-64.129 0v-33.097h17.064v33.097zm-64.129 0v-33.097h17.064v33.097zm-64.129 0v-33.097h17.064v33.097zm-64.129 0v-33.097h17.064v33.097zm-48.097 15h433.903V497H39.048zM87.661 127.226a7.5 7.5 0 0 0 7.5-7.5c0-31.225 25.404-56.629 56.629-56.629h120.242a7.5 7.5 0 0 0 7.5-7.5c0-22.385 18.211-40.597 40.597-40.597h176.177c-3.529 18.814-20.079 33.097-39.902 33.097H320.129a7.5 7.5 0 0 0-7.5 7.5c0 13.545-11.02 24.564-24.564 24.564h-88.177c-21.816 0-39.564 17.749-39.564 39.564a7.5 7.5 0 0 0 15 0c0-13.545 11.02-24.564 24.564-24.564h88.177c19.253 0 35.337-13.822 38.852-32.064h129.487C487.06 63.097 512 38.156 512 7.5a7.5 7.5 0 0 0-7.5-7.5H320.129c-28.113 0-51.42 20.974-55.093 48.097H151.79c-39.496 0-71.629 32.133-71.629 71.629a7.5 7.5 0 0 0 7.5 7.5z" data-original="#000000"/></g></svg>