<svg xmlns="http://www.w3.org/2000/svg" width="512" height="512" style="enable-background:new 0 0 512 512" xml:space="preserve"><g xmlns="http://www.w3.org/2000/svg"><path d="m11.447 241.907 67.204-41.586a7.03 7.03 0 0 1 7.445 0l112.914 69.872a7.496 7.496 0 0 0 10.324-2.432 7.499 7.499 0 0 0-2.432-10.324L189.5 246.669l83.614-53.053c6.222-3.947 14.386-3.256 19.855 1.683l45.777 41.335a7.496 7.496 0 0 0 6.17 1.846c22.234-3.429 39.098-9.696 49.329-14.351a7.075 7.075 0 0 1 7.397.934l97.792 78.606a7.474 7.474 0 0 0 4.694 1.654 7.502 7.502 0 0 0 4.705-13.346l-97.793-78.606c-6.548-5.263-15.363-6.372-23.006-2.896-8.834 4.019-23.099 9.355-41.912 12.609l-43.1-38.918c-10.451-9.439-26.057-10.758-37.945-3.215L224.023 207l-29.524-21.089c-10.445-7.463-24.476-7.462-34.908-.001l-31.696 22.638-33.906-20.981c-7.166-4.434-16.067-4.434-23.231 0L3.555 229.152a7.5 7.5 0 1 0 7.892 12.755zm156.867-43.793a15.018 15.018 0 0 1 17.467.002l24.576 17.555-35.031 22.227-33.602-20.793z" data-original="#000000"/><path d="M504.499 475.822h-62.27c17.259-25.455 39.612-47.991 66.606-67.116a7.5 7.5 0 1 0-8.672-12.24c-31.398 22.246-56.867 48.935-75.797 79.356h-99.669c41.902-61.702 105.088-92.823 141.048-106.363h38.753c4.143 0 7.5-3.357 7.5-7.5s-3.357-7.5-7.5-7.5h-57.265v-7.608l21.738-14.259a7.5 7.5 0 1 0-8.227-12.543l-13.512 8.863v-11.937l9.699-6.362a7.5 7.5 0 1 0-8.227-12.543l-1.473.966v-8.127c0-4.143-3.357-7.5-7.5-7.5s-7.5 3.357-7.5 7.5v8.128l-1.474-.967a7.5 7.5 0 0 0-8.227 12.543l9.7 6.362v11.937l-13.513-8.863a7.5 7.5 0 0 0-8.227 12.543l21.739 14.259v7.608H324.866v-7.608l21.739-14.259a7.5 7.5 0 1 0-8.227-12.543l-13.513 8.863v-11.937l9.7-6.362a7.5 7.5 0 1 0-8.227-12.543l-1.474.967v-8.128c0-4.143-3.357-7.5-7.5-7.5s-7.5 3.357-7.5 7.5v8.127l-1.473-.966a7.5 7.5 0 0 0-8.227 12.543l9.699 6.362v11.937l-13.512-8.863a7.5 7.5 0 1 0-8.227 12.543l21.738 14.259v7.608H202.499v-7.608l21.738-14.259a7.5 7.5 0 0 0-8.227-12.543l-13.512 8.863v-11.937l9.699-6.362a7.5 7.5 0 1 0-8.227-12.543l-1.473.966v-8.127c0-4.143-3.357-7.5-7.5-7.5s-7.5 3.357-7.5 7.5v8.128l-1.474-.967a7.5 7.5 0 0 0-8.227 12.543l9.7 6.362v11.937l-13.513-8.863a7.5 7.5 0 0 0-8.227 12.543l21.739 14.259v7.608H80.132v-7.608l21.738-14.259a7.5 7.5 0 0 0-8.227-12.543l-13.512 8.863v-11.937l9.699-6.362a7.5 7.5 0 1 0-8.227-12.543l-1.473.966v-8.127c0-4.143-3.357-7.5-7.5-7.5s-7.5 3.357-7.5 7.5v8.128l-1.474-.967a7.5 7.5 0 0 0-8.227 12.543l9.7 6.362v11.937l-13.513-8.863a7.5 7.5 0 1 0-8.227 12.543l21.739 14.259v7.608H7.866c-4.143 0-7.5 3.357-7.5 7.5s3.357 7.5 7.5 7.5h67.576c-22.757 11.239-48.507 26.982-72.584 48.588a7.5 7.5 0 0 0 5.012 13.082 7.473 7.473 0 0 0 5.006-1.918c34.844-31.266 73.481-49.698 100.192-59.752h79.865c-17.219 8.495-33.467 18.27-48.557 29.243-29.968 21.791-54.39 47.727-72.682 77.12H7.866c-4.143 0-7.5 3.357-7.5 7.5s3.357 7.5 7.5 7.5h496.633c4.143 0 7.5-3.357 7.5-7.5s-3.357-7.5-7.5-7.5zm-197.692 0H207.14c41.902-61.702 105.088-92.823 141.048-106.363h79.857c-17.219 8.495-33.467 18.27-48.557 29.243-29.968 21.791-54.389 47.727-72.681 77.12zm-76.176-106.363h79.857c-17.219 8.495-33.467 18.27-48.557 29.243-29.969 21.791-54.39 47.727-72.682 77.12H89.583c41.902-61.703 105.088-92.824 141.048-106.363zM261.359 126.917h209.549c4.826 0 9.168-2.687 11.33-7.01 2.146-4.293 1.696-9.337-1.175-13.165-5.035-6.713-13.817-14.471-28.404-17.176 3.258-9.54 3.503-19.4.656-29.007-4.08-13.766-14.142-25.494-27.604-32.178-19.449-9.654-41.519-9.602-60.549.142-17.304 8.859-30.266 24.773-35.916 43.618-10.568-2.564-23.214.155-32.312 7.705-9.649 8.005-13.445 19.524-10.959 32.07h-24.616a7.501 7.501 0 0 0 0 15.001zm45.153-35.527c6.893-5.719 17.719-6.97 23.638-2.729a7.501 7.501 0 0 0 11.766-4.876c2.995-18.132 14.24-33.8 30.083-41.911 14.969-7.665 31.677-7.686 47.043-.058 9.6 4.766 17.036 13.365 19.892 23.005 2.674 9.023 1.299 18.512-3.977 27.437a7.5 7.5 0 0 0 6.457 11.316c11.861 0 19.441 3.972 24.189 8.341H301.415c-3.352-10.523.74-16.91 5.097-20.525z" data-original="#000000"/></g></svg>