<svg id="Capa_1" enable-background="new 0 0 512 512" height="512" viewBox="0 0 512 512" width="512" xmlns="http://www.w3.org/2000/svg"><g><path d="m503.942 497.047h-203.722l-6.381-83.274c14.131-3.217 27.799-8.219 40.671-14.876l9.903 17.244c-13.881 14.413-6.835 40.464 13.063 45.368 23.203 6.562 43.137-19.654 30.869-40.402 0-.001 0-.001 0-.001-5.933-10.756-19.477-16.258-31.181-12.788l-9.686-16.867c6.979-4.424 13.671-9.357 19.996-14.808 3.128-2.696 3.478-7.416.783-10.545-2.696-3.128-7.416-3.477-10.545-.782-18.85 16.245-41.185 27.607-65.027 33.389l-1.447-18.879c59.011-15.69 102.641-69.81 102.641-133.985-.785-150.385-207.603-191.797-265.343-52.923-3.556 9.159 9.914 14.713 13.828 5.686 1.033-2.51 2.155-4.963 3.334-7.376l82.353 47.802h-94.779c.113-6.605 3.662-15.971-5.625-17.647-4.091-.524-7.844 2.363-8.373 6.457-9.586 69.176 36.571 135.425 101.489 151.983l-1.449 18.911c-177.176-45.931-148.466-306.483 36.691-310.166 126.986-2.478 203.156 153.085 124.44 252.546-5.82 7.886 5.862 16.78 11.919 9.032 2.767-3.649 5.372-7.386 7.822-11.201l17.067 9.907c-6.476 30.607 34.289 47.04 50.561 19.896 15.538-28.165-20.583-55.723-43.431-33.046l-16.671-9.677c11.668-22.191 18.28-46.603 19.443-72.043h19.72c9.368 29.707 53.359 23.384 53.695-8.142-.427-32.315-45.912-37.713-54.069-6.811h-19.3c-1.008-25.917-7.734-50.381-18.954-72.149l17.119-9.937c23.29 21.059 57.66-6.559 42.446-34.01-16.801-27.604-58.396-9.809-50.222 21.236l-16.765 9.731c-13.382-21.221-31.246-39.317-52.249-52.925l9.924-17.281c30.668 6.514 46.62-34.669 19.799-50.751-28.442-15.666-55.366 20.77-32.928 43.587l-9.692 16.877c-21.926-11.626-46.646-18.609-72.863-19.646v-19.489c30.739-8.203 25.375-53.844-6.815-54.272-31.412.346-37.675 44.495-8.137 53.897v19.917c-25.727 1.215-49.984 8.164-71.542 19.595l-9.692-16.877c8.754-8.588 10.99-22.372 4.604-33.491v.001c-7.102-12.988-24.883-17.794-37.533-10.097-26.824 16.09-10.861 57.266 19.8 50.751l9.924 17.281c-21.004 13.608-38.867 31.703-52.249 52.925l-16.765-9.731c8.083-31.07-33.422-49.06-50.223-21.234-15.22 27.442 19.147 55.026 42.446 34.008l17.119 9.937c-11.22 21.768-17.945 46.232-18.953 72.149h-19.3c-8.162-30.905-53.645-25.5-54.069 6.812.34 31.528 44.333 37.845 53.695 8.14h19.718c1.205 25.894 8.132 50.305 19.526 71.996l-16.752 9.724c-22.854-22.679-58.968 4.886-43.43 33.047 16.324 27.188 57.003 10.73 50.561-19.898l17.142-9.95c13.541 21.109 31.541 39.064 52.655 52.512l-9.708 16.904c-11.706-3.47-25.247 2.032-31.182 12.788v.001c-12.264 20.757 7.664 46.96 30.87 40.402 19.896-4.899 26.945-30.963 13.062-45.368l9.907-17.252c12.714 6.615 26.352 11.675 40.663 14.933l-6.377 83.225h-203.721c-9.683.186-10.008 14.677 0 14.953h495.88c9.627-.169 10.057-14.671.002-14.953zm-145.623-73.104c14.698-7.849 26.482 13.186 12.476 21.865-14.724 7.493-26.518-12.984-12.476-21.865zm74.884-75.285c8.9-14.065 29.458-2.008 21.644 12.645-8.846 14.102-29.467 2.015-21.644-12.645zm39.909-115.429c16.529.528 16.524 24.701 0 25.228-16.527-.529-16.524-24.703 0-25.228zm-35.325-107.458c14.664-8.02 26.482 13.221 12.476 21.867-14.677 7.62-26.517-13.092-12.476-21.867zm-84.052-75.284c8.872-14.081 29.461-2.013 21.644 12.644-8.865 14.072-29.464 2.027-21.644-12.644zm-110.24-22.92c.527-16.671 24.488-16.667 25.013 0-.527 16.67-24.488 16.666-25.013 0zm-89.811 40.175c-14.694 7.777-26.49-13.16-12.476-21.866 14.687-7.793 26.493 13.164 12.476 21.866zm-74.884 75.284c-9.201 14.083-29.014 2.125-21.644-12.644 8.581-14.414 29.556-1.817 21.644 12.644zm-39.908 115.43c-10.926.207-16.682-13.873-8.875-21.494 7.733-7.859 21.381-2.114 21.381 8.879 0 6.957-5.61 12.615-12.506 12.615zm35.325 107.457c-14.693 7.769-26.494-13.153-12.476-21.865 14.683-7.708 26.503 13.129 12.476 21.865zm84.051 75.285c-8.869 14.025-29.46 2.061-21.644-12.646 8.731-14.254 29.486-1.966 21.644 12.646zm164.988-91.926-39.649-69.042-.718-9.368 75.257 43.682c-9.199 13.787-21.081 25.616-34.89 34.728zm42.422-47.645-82.081-47.644h95.065c-1.107 17.049-5.67 33.162-12.984 47.644zm13.06-62.596h-94.787l82.32-47.782c7.152 14.551 11.541 30.709 12.467 47.782zm-19.862-60.779-82.012 47.604 47.498-82.711c13.705 9.258 25.46 21.215 34.514 35.107zm-96.059-55.843c17.429.963 33.901 5.593 48.666 13.135l-48.666 84.745zm-14.953.09v95.489l-47.383-82.51c14.515-7.369 30.572-11.875 47.383-12.979zm-94.818 55.706c9.135-14.103 20.919-26.011 34.532-35.169l47.561 82.82zm-19.705 75.778h95.066l-82.081 47.644c-7.314-14.482-11.878-30.595-12.985-47.644zm20.518 60.559 75.255-43.682-.718 9.368-39.648 69.041c-13.809-9.111-25.69-20.94-34.889-34.727zm68.07 50.087c-7.018-2.039-13.778-4.694-20.222-7.898l24.034-41.852zm4.851 132.418 18.589-242.602c.68-5.395 5.23-9.448 10.633-9.448s9.953 4.053 10.633 9.448l18.589 242.602zm59.482-182.168 24.036 41.856c-6.444 3.204-13.207 5.854-20.225 7.893z"/></g></svg>