<svg id="Capa_1" enable-background="new 0 0 512 512" height="512" viewBox="0 0 512 512" width="512" xmlns="http://www.w3.org/2000/svg"><g><g><path d="m256 228.257c29.087 0 52.751-23.664 52.751-52.751s-23.664-52.751-52.751-52.751-52.751 23.664-52.751 52.751 23.664 52.751 52.751 52.751zm0-85.502c18.059 0 32.751 14.692 32.751 32.751s-14.692 32.751-32.751 32.751-32.751-14.692-32.751-32.751 14.692-32.751 32.751-32.751z"/><path d="m198 276.128h116c5.522 0 10-4.477 10-10s-4.478-10-10-10h-116c-5.523 0-10 4.477-10 10s4.477 10 10 10z"/><path d="m291.434 300.128h-70.867c-5.523 0-10 4.477-10 10s4.477 10 10 10h70.867c5.522 0 10-4.477 10-10s-4.478-10-10-10z"/><path d="m502 436h-17v-38c0-5.523-4.478-10-10-10h-37v-295.461c0-21.25-17.288-38.539-38.539-38.539h-44.036c-6.279 0-12.127-3.214-15.641-8.598-18.558-28.429-49.879-45.402-83.784-45.402s-65.226 16.973-83.784 45.402c-3.514 5.384-9.361 8.598-15.641 8.598h-44.037c-21.249 0-38.538 17.289-38.538 38.539v295.461h-37c-5.523 0-10 4.477-10 10v38h-17c-5.523 0-10 4.477-10 10v56c0 5.523 4.477 10 10 10h492c5.522 0 10-4.477 10-10v-56c0-5.523-4.478-10-10-10zm-37 0h-119.463c-3.234-4.63-7.545-8.372-12.575-10.913 8.557-3.321 15.759-9.372 20.526-17.087h111.512zm-140.454 39.027c.952 5.547-1.198 10.833-5.752 14.141-4.552 3.308-10.245 3.721-15.227 1.101-1.457-.766-3.055-1.148-4.653-1.148s-3.196.383-4.653 1.148c-4.983 2.62-10.675 2.208-15.227-1.101-4.554-3.308-6.704-8.594-5.752-14.141.556-3.244-.52-6.554-2.876-8.851-4.03-3.928-5.397-9.469-3.658-14.822 1.738-5.353 6.102-9.031 11.671-9.84 3.258-.473 6.073-2.519 7.53-5.47 2.49-5.047 7.337-8.06 12.965-8.06s10.475 3.013 12.965 8.06c1.457 2.951 4.272 4.997 7.53 5.47 5.569.81 9.933 4.488 11.672 9.841 1.739 5.352.371 10.893-3.659 14.821-2.357 2.297-3.432 5.607-2.876 8.851zm-6.676-67.113h-10.706v-10.707c0-12.044 9.799-21.843 21.843-21.843h10.707v10.706c0 12.045-9.799 21.844-21.844 21.844zm-33.362-14.803c-2.356 2.297-3.432 5.607-2.876 8.851.952 5.547-1.198 10.833-5.752 14.141-4.551 3.308-10.242 3.72-15.227 1.101-2.912-1.532-6.394-1.532-9.307 0-4.982 2.619-10.674 2.208-15.227-1.101-4.553-3.308-6.703-8.594-5.752-14.141.557-3.244-.519-6.554-2.876-8.851-4.03-3.929-5.398-9.47-3.659-14.822 1.739-5.353 6.103-9.031 11.672-9.84 3.257-.473 6.073-2.519 7.529-5.47 2.491-5.047 7.337-8.06 12.965-8.06s10.475 3.013 12.965 8.06c1.457 2.951 4.272 4.997 7.53 5.47 5.569.81 9.933 4.488 11.672 9.84s.373 10.893-3.657 14.822zm-79.672 4.097v10.707h-10.707c-12.044 0-21.843-9.799-21.843-21.843v-10.706h10.706c12.045-.001 21.844 9.798 21.844 21.842zm-23.916 54.146c1.739-5.353 6.103-9.031 11.672-9.84 3.257-.473 6.073-2.519 7.529-5.47 2.491-5.047 7.338-8.06 12.965-8.06 5.628 0 10.475 3.013 12.966 8.06 1.457 2.951 4.272 4.997 7.529 5.47 5.569.809 9.932 4.488 11.671 9.84s.372 10.894-3.658 14.822c-2.357 2.297-3.433 5.607-2.876 8.851.951 5.547-1.199 10.833-5.752 14.141s-10.246 3.72-15.227 1.101c-2.913-1.531-6.394-1.531-9.307 0-4.981 2.62-10.673 2.208-15.227-1.101-4.553-3.308-6.703-8.594-5.752-14.141.557-3.244-.519-6.554-2.876-8.852-4.028-3.927-5.396-9.468-3.657-14.821zm-86.92-358.815c0-10.223 8.316-18.539 18.539-18.539h44.037c13.06 0 25.168-6.604 32.389-17.666 14.85-22.751 39.91-36.334 67.035-36.334 27.124 0 52.185 13.583 67.036 36.334 7.22 11.062 19.328 17.666 32.389 17.666h44.036c10.223 0 18.539 8.316 18.539 18.539v295.461h-20v-284c0-5.523-4.478-10-10-10h-32.575c-19.842 0-38.21-9.994-49.137-26.735-11.144-17.073-29.944-27.265-50.288-27.265s-39.144 10.193-50.288 27.266c-10.927 16.74-29.296 26.734-49.137 26.734h-32.575c-5.523 0-10 4.477-10 10v107.063c0 5.523 4.477 10 10 10s10-4.477 10-10v-97.063h22.575c26.621 0 51.251-13.384 65.885-35.802 7.438-11.395 19.977-18.198 33.54-18.198s26.102 6.803 33.54 18.197c14.633 22.419 39.263 35.803 65.885 35.803h22.575v274h-18.335c.029-.64.049-22.635.049-22.635 0-5.523-4.478-10-10-10h-20.707c-9.632 0-18.506 3.28-25.586 8.769-4.409-6.912-11.135-12.022-19.091-14.387-6.374-9.255-16.832-14.829-28.33-14.829s-21.956 5.573-28.331 14.829c-7.955 2.365-14.682 7.475-19.09 14.387-7.08-5.49-15.955-8.769-25.587-8.769h-20.706c-5.523 0-10 4.477-10 10 0 0 .02 21.995.049 22.635h-18.335v-86.937c0-5.523-4.477-10-10-10s-10 4.477-10 10v86.937h-20zm-47 315.461h111.512c4.767 7.715 11.97 13.766 20.526 17.087-5.03 2.542-9.341 6.283-12.575 10.913h-119.463zm-27 48h140.198c.018 7.437 2.448 14.692 7.049 20.701-.135 5.353.985 10.568 3.187 15.299h-150.434zm472 36h-150.433c2.202-4.731 3.322-9.947 3.187-15.299 4.6-6.009 7.031-13.264 7.049-20.701h140.197z"/><circle cx="124" cy="256.128" r="10"/><circle cx="213.09" cy="461.907" r="10"/><circle cx="298.915" cy="461.907" r="10"/><circle cx="256.013" cy="388.842" r="10"/></g></g></svg>