<?xml version="1.0" encoding="iso-8859-1"?>
<!-- Generator: Adobe Illustrator 19.0.0, SVG Export Plug-In . SVG Version: 6.00 Build 0)  -->
<svg version="1.1" id="Capa_1" xmlns="http://www.w3.org/2000/svg" xmlns:xlink="http://www.w3.org/1999/xlink" x="0px" y="0px"
	 viewBox="0 0 512.003 512.003" style="enable-background:new 0 0 512.003 512.003;" xml:space="preserve">
<g>
	<g>
		<g>
			<path d="M36.236,492H36c-5.522,0-10,4.478-10,10c0,5.522,4.477,10,10,10h0.236c5.523,0,10-4.478,10-10
				C46.236,496.478,41.759,492,36.236,492z"/>
			<path d="M476.003,492h-0.238c-5.522,0-10,4.478-10,10c0,5.522,4.478,10,10,10h0.238c5.523,0,10-4.478,10-10
				C486.003,496.478,481.526,492,476.003,492z"/>
			<path d="M447.035,492h-21.034v-29.998c0-5.522-4.477-10-10-10h-29.999v-30.003c0-5.522-4.477-10-10-10h-30.717l-25.31-338.94
				c-0.157-2.104-0.975-4.104-2.339-5.715l-54-63.808c-0.061-0.071-0.128-0.134-0.189-0.203c-0.124-0.138-0.248-0.273-0.381-0.405
				c-0.127-0.127-0.258-0.247-0.391-0.366c-0.072-0.065-0.137-0.136-0.213-0.199c-0.041-0.035-0.085-0.063-0.127-0.097
				c-0.154-0.127-0.313-0.245-0.473-0.361c-0.111-0.081-0.221-0.162-0.334-0.237c-0.161-0.107-0.324-0.204-0.49-0.301
				c-0.124-0.072-0.247-0.146-0.373-0.213c-0.155-0.081-0.313-0.154-0.472-0.228c-0.143-0.066-0.284-0.133-0.43-0.191
				c-0.147-0.06-0.297-0.111-0.446-0.164c-0.158-0.056-0.316-0.112-0.477-0.159c-0.146-0.043-0.292-0.077-0.438-0.113
				c-0.166-0.041-0.331-0.083-0.499-0.115c-0.151-0.029-0.303-0.05-0.455-0.071c-0.162-0.024-0.324-0.049-0.488-0.064
				c-0.165-0.016-0.33-0.022-0.496-0.03C256.313,0.009,256.164,0,256.013,0c-0.182,0-0.363,0.01-0.544,0.02
				c-0.134,0.007-0.268,0.012-0.403,0.024c-0.191,0.018-0.383,0.046-0.573,0.075c-0.124,0.019-0.249,0.035-0.372,0.059
				c-0.191,0.036-0.381,0.084-0.57,0.132c-0.123,0.031-0.248,0.06-0.371,0.096c-0.178,0.052-0.352,0.114-0.527,0.177
				c-0.135,0.048-0.27,0.094-0.401,0.146c-0.155,0.063-0.308,0.135-0.46,0.206c-0.15,0.069-0.3,0.139-0.447,0.216
				c-0.129,0.068-0.256,0.143-0.383,0.219c-0.164,0.096-0.327,0.192-0.486,0.299c-0.111,0.073-0.218,0.152-0.326,0.23
				c-0.164,0.119-0.328,0.241-0.486,0.372c-0.039,0.032-0.082,0.059-0.121,0.092c-0.07,0.059-0.132,0.127-0.201,0.189
				c-0.138,0.124-0.275,0.249-0.407,0.382c-0.127,0.127-0.247,0.258-0.366,0.391c-0.064,0.072-0.135,0.137-0.198,0.212
				l-53.997,63.808c-1.363,1.61-2.182,3.611-2.34,5.715l-25.31,338.941h-30.722c-5.523,0-10,4.478-10,10v30.003h-30
				c-5.523,0-10,4.478-10,10v29.998H64.966c-5.522,0-10,4.478-10,10c0,5.522,4.478,10,10,10h31.032h120.003H336h80h31.034
				c5.523,0,10-4.478,10-10C457.035,496.478,452.558,492,447.035,492z M211.734,77.784l44.268-52.31l44.27,52.31l24.957,334.213
				h-59.227V127.212c0-5.522-4.478-10-10-10c-5.523,0-10,4.478-10,10v284.786h-59.226L211.734,77.784z M145.999,431.998h220.002
				v20.003H145.999V431.998z M406.001,492h-70H216.002H105.999v-19.998h30h240.002h29.999V492z"/>
			<path d="M256.002,108.483c5.522,0,10-4.478,10-10v-0.236c0-5.522-4.478-10-10-10c-5.523,0-10,4.478-10,10v0.236
				C246.002,104.006,250.478,108.483,256.002,108.483z"/>
		</g>
	</g>
</g>
<g>
</g>
<g>
</g>
<g>
</g>
<g>
</g>
<g>
</g>
<g>
</g>
<g>
</g>
<g>
</g>
<g>
</g>
<g>
</g>
<g>
</g>
<g>
</g>
<g>
</g>
<g>
</g>
<g>
</g>
</svg>
