<svg xmlns="http://www.w3.org/2000/svg" width="512" height="512" style="enable-background:new 0 0 512 512" xml:space="preserve"><path d="M503.883 375.906c-5.234-5.234-12.192-8.116-19.593-8.116h-25.666c3.469-4 6.242-8.666 8.082-13.848l32.111-90.33a43.39 43.39 0 0 0-2.854-35.403l-32.06-58.35a7.5 7.5 0 1 0-13.147 7.223l27.324 49.73-147.805 35.324a44.692 44.692 0 0 0-34.002 49.401l.776 5.909-33.936 3.825a22.586 22.586 0 0 0-18.489 14.12l-6.528 16.411a22.599 22.599 0 0 0-.276 15.988H89.98c-11.637 0-21.961-6.971-26.303-17.763l-33.211-82.428 97.269 13.537a56.88 56.88 0 0 0 7.836.543c23.955 0 45.891-15.2 53.928-38.332l32.65-93.977 22.441-33.126a28.324 28.324 0 0 1 23.48-12.455H393.7a28.366 28.366 0 0 1 24.866 14.711l17.74 32.29a7.5 7.5 0 1 0 13.147-7.223l-17.74-32.289A43.363 43.363 0 0 0 393.7 88.79H268.07a43.309 43.309 0 0 0-35.9 19.043l-23.001 33.951a28.323 28.323 0 0 1-23.479 12.455h-71.31c-9.41 0-18.717 3.131-26.203 8.815l-62.45 47.38C10.184 222.227 4.422 243.1 11.714 261.192l38.049 94.437a43.559 43.559 0 0 0 7.388 12.16H27.71C12.431 367.79 0 380.221 0 395.5c0 7.401 2.882 14.359 8.117 19.594 5.234 5.234 12.193 8.116 19.593 8.116h73.88a7.5 7.5 0 0 0 0-15H27.71c-3.394 0-6.586-1.322-8.987-3.723S15 398.894 15 395.5c0-7.008 5.702-12.71 12.71-12.71h456.58c3.395 0 6.586 1.322 8.986 3.723A12.628 12.628 0 0 1 497 395.5c0 7.008-5.702 12.71-12.71 12.71h-352.7a7.5 7.5 0 0 0 0 15h352.7c15.279 0 27.71-12.431 27.71-27.71 0-7.401-2.883-14.359-8.117-19.594zM34.793 222.385l62.452-47.381a28.495 28.495 0 0 1 17.135-5.763h71.31c5.037 0 9.946-.888 14.555-2.53l-24.916 71.715c-6.566 18.898-25.714 30.613-45.527 27.854l-105.43-14.673c-2.587-10.801 1.377-22.36 10.421-29.222zm217.241 134.961 6.529-16.411a7.612 7.612 0 0 1 6.23-4.758l82.964-9.351a7.644 7.644 0 0 1 7.713 4.246l12.508 25.762c1.172 2.414 1.027 5.102-.396 7.376s-3.779 3.579-6.463 3.579h-102c-2.568 0-4.867-1.219-6.309-3.344-1.443-2.125-1.726-4.712-.776-7.099zm130.383 10.444c2.044-5.666 1.759-11.936-.946-17.507l-12.508-25.762c-4.181-8.608-13.382-13.67-22.887-12.601l-34.119 3.846-.812-6.183a29.727 29.727 0 0 1 22.617-32.858l151.244-36.146a28.384 28.384 0 0 1-.323 18.009l-32.111 90.333c-4.007 11.286-14.746 18.869-26.723 18.869z" data-original="#000000" xmlns="http://www.w3.org/2000/svg"/></svg>