<svg xmlns="http://www.w3.org/2000/svg" width="512" height="512" style="enable-background:new 0 0 512 512" xml:space="preserve"><path xmlns="http://www.w3.org/2000/svg" d="M499.5 421.835h-8.333v-21.507c0-6.893-5.607-12.5-12.5-12.5H457.5v-96.374c0-3.339-1.301-6.479-3.662-8.841l-28.219-28.208v-16.398l25.234-13.369a12.472 12.472 0 0 0 6.646-11.044v-83.14h18.285c6.893 0 12.5-5.607 12.5-12.5v-17.5H494c6.893 0 12.5-5.607 12.5-12.5v-37.5c0-6.893-5.607-12.5-12.5-12.5h-69.333c-4.143 0-7.5 3.357-7.5 7.5s3.357 7.5 7.5 7.5H491.5v32.5H276.485L262.5 78.352v-8.397a7.5 7.5 0 0 0-5.56-7.245l-13.11-3.511v-6.244h81.67v4c0 4.143 3.357 7.5 7.5 7.5s7.5-3.357 7.5-7.5v-4H352v13.5c0 4.143 3.357 7.5 7.5 7.5s7.5-3.357 7.5-7.5v-13.5h23.666c4.143 0 7.5-3.357 7.5-7.5s-3.357-7.5-7.5-7.5H241.33c-6.893 0-12.5 5.607-12.5 12.5v10.663a12.521 12.521 0 0 0 9.267 12.075l9.403 2.518v4.176c0 4.731 2.621 9.002 6.84 11.145l15.885 8.067a12.541 12.541 0 0 0 5.662 1.356h72.065v17.5c0 6.893 5.607 12.5 12.5 12.5H377.6v257.374h-11.117l-6.501-7.37v-8.72a12.51 12.51 0 0 0-7.38-11.402l-27.03-12.137v-6.576c0-6.893-5.607-12.5-12.5-12.5H295.95v-44.456c0-4.143-3.357-7.5-7.5-7.5s-7.5 3.357-7.5 7.5v103.161h-49.9V235.101l4.866-4.866H248.5v140.589c0 4.143 3.357 7.5 7.5 7.5s7.5-3.357 7.5-7.5V224.35c0-.248-.014-.493-.037-.734l4.796-26.361h12.691v53.412c0 4.143 3.357 7.5 7.5 7.5s7.5-3.357 7.5-7.5v-55.912c0-6.893-5.607-12.5-12.5-12.5h-17.278a12.494 12.494 0 0 0-12.298 10.263l-4.133 22.718h-14.86c-3.339 0-6.478 1.3-8.839 3.66l-6.331 6.331a12.424 12.424 0 0 0-3.661 8.84v95.058H134.4v-43.652a12.47 12.47 0 0 0-4.486-9.593l-15.046-12.569a12.523 12.523 0 0 0-8.012-2.906h-8.122l-12.136-27.031a12.52 12.52 0 0 0-11.403-7.379H67c-6.893 0-12.5 5.607-12.5 12.5v149.336H33.333c-6.893 0-12.5 5.607-12.5 12.5v21.507H12.5c-6.893 0-12.5 5.607-12.5 12.5v27.211c0 6.893 5.607 12.5 12.5 12.5h487c6.893 0 12.5-5.607 12.5-12.5v-27.211c0-6.896-5.607-12.503-12.5-12.503zM362.952 100.454h110.333v15H362.952zM392.6 353.337h.9c4.143 0 7.5-3.357 7.5-7.5s-3.357-7.5-7.5-7.5h-.9V130.454h49.9v81.635l-16.881 8.944v-60.614c0-4.143-3.357-7.5-7.5-7.5s-7.5 3.357-7.5 7.5v210.402c0 4.143 3.357 7.5 7.5 7.5s7.5-3.357 7.5-7.5v-95.207l16.881 16.875v95.339h-49.9zm-96.65-9.214h14.621v8.93a7.5 7.5 0 0 0 4.428 6.842l29.982 13.463v9.936c0 1.644.544 3.234 1.533 4.535H295.95zM69.5 240.992h4.077l12.822 28.556c-.005.118-.018.234-.018.354v100.919c0 4.143 3.357 7.5 7.5 7.5s7.5-3.357 7.5-7.5v-95.419h4.567L119.4 286.64v101.188H69.5zM35.833 402.828H152c4.143 0 7.5-3.357 7.5-7.5s-3.357-7.5-7.5-7.5h-17.6v-43.705H152v7.331c0 4.143 3.357 7.5 7.5 7.5s7.5-3.357 7.5-7.5v-7.331h49.05v43.705H186c-4.143 0-7.5 3.357-7.5 7.5s3.357 7.5 7.5 7.5h290.167v19.007H35.833zM497 459.046H15v-22.211h482z" data-original="#000000"/></svg>