<svg xmlns="http://www.w3.org/2000/svg" width="512" height="512" viewBox="0 0 512.003 512.003" style="enable-background:new 0 0 512 512" xml:space="preserve"><g xmlns="http://www.w3.org/2000/svg"><path d="m440.859 492.82-4.505-17.22c-2.635-10.068-11.743-17.1-22.156-17.1l-13.102.011V439.87c0-10.957-8.914-19.87-19.87-19.87h-19.537c16.347-22.302 25.207-49.185 25.207-77.23 0-25.243-7.201-49.744-20.825-70.855a7.5 7.5 0 0 0-12.603 8.134c12.057 18.681 18.429 40.37 18.429 62.721 0 28.669-10.453 55.966-29.495 77.23h-38.94l-35.96-92.084c-1.478-3.773-.328-8.002 2.857-10.523l53.387-42.217c15.26-12.053 24.012-30.126 24.012-49.586V135.9c.084-45.877-37.956-83.96-84.23-83.38V38.09c0-21.003-17.087-38.09-38.09-38.09h-28.18c-21.003 0-38.091 17.087-38.091 38.09v34.74c0 12.962 4.912 25.463 13.59 34.971-2.076 10.127-9.199 28.84-7.306 39.711l10.057 68.471-63.375 22.157c-26.535 8.804-35.141 44.809-13.853 64.935l27.59 26.039a132.03 132.03 0 0 0-.713 13.657c0 28.043 8.858 54.926 25.202 77.23h-19.532c-10.956 0-19.87 8.914-19.87 19.87v18.63H97.848c-10.407 0-19.516 7.032-22.15 17.1l-4.505 17.219C68.848 500.806 75.405 512.212 86 512h340.051c8.968.119 17.225-8.798 14.808-19.18zm-54.763-52.95v18.653l-82.989.067c3.228-4.997 2.819-17.534 2.739-23.59h75.38a4.875 4.875 0 0 1 4.87 4.87zM264.386 67.52c37.699 0 68.37 30.675 68.37 68.38v89.69c0 14.842-6.673 28.625-18.313 37.817l-53.393 42.221c-8.396 6.644-11.417 17.798-7.521 27.75l36.592 93.699c1.208 1.424.585 17.718.725 19.713 0 6.33-4.993 11.501-11.246 11.819l-24.451.02c-1.554.079-2.209-.269-6.912.006l8.938-19.492c2.879-6.382 3.396-15.458-1.104-23.5l-56.685-98.262c-6.499-10.706-4.945-27.464 5.439-37l23.497-22.122a39.818 39.818 0 0 0 11.314-5.634l44.661-31.923c12.311-8.8 19.66-23.086 19.66-38.218V120.4c0-4.142-3.357-7.5-7.5-7.5s-7.5 3.358-7.5 7.5v62.084c0 10.3-5.003 20.025-13.383 26.015l-44.661 31.923c-17.11 12.062-38.995-1.104-39.656-20.406l-10.97-74.685c-1.583-4.555 5.786-27.874 6.646-32.436h15.083c-1.799 9.882-6.852 23.95-4.545 34.674l11.314 56.69c1.111 4.44 6.193 8.04 11.97 4.444l23.294-18.187c6.413-5.007 10.091-12.544 10.091-20.68v-67.258c6.811-9.209 10.065-22.481 9.384-35.058h.862zM241.269 420h-21.158l2.72-31.962zm-29.002-283.883 2.537-11.532a51.498 51.498 0 0 0 24.338-7.754v53.006c0 3.484-1.575 6.713-4.321 8.857l-13.705 10.7-8.933-44.759a20.632 20.632 0 0 1 .084-8.518zM174.165 38.09c0-12.732 10.358-23.09 23.091-23.09h28.18c12.731 0 23.09 10.358 23.09 23.09v34.74c.792 15.688-13.559 34.334-30.954 36.374-.292-4.932-5.404-11.379-12.406-11.309h-21.144c-6.29-6.783-9.856-15.756-9.856-25.065V38.09zm-71.121 246.175c-5.305-11.124.948-27.846 14.037-31.965l60.972-21.317c3.83 13.508 14.63 24.007 27.97 27.67l-11.479 10.807c-5.898 5.555-10.138 12.605-12.374 20.284l-8.829-10.211a7.5 7.5 0 0 0-11.348 9.811l19.381 22.416a45.337 45.337 0 0 0 5.015 13.109l23.323 40.43L205.057 420h-9.991a7.424 7.424 0 0 1-7.432-6.784l-3.69-40.297a28.014 28.014 0 0 0-8.66-17.793l-66.714-62.963a23.79 23.79 0 0 1-5.526-7.898zm37.112 58.505c0-.057.003-.113.003-.17l24.827 23.432a13.014 13.014 0 0 1 4.021 8.262l3.689 40.285a22.745 22.745 0 0 0 1.19 5.421h-4.245c-19.035-21.267-29.485-48.564-29.485-77.23zm286.137 154.111c-.091.119-.182.119-.242.119H86c.007-.03-.333-.002-.296-.384l4.505-17.219a7.9 7.9 0 0 1 7.639-5.897h103.594c4.143 0 7.5-3.358 7.5-7.5s-3.357-7.5-7.5-7.5h-75.486v-18.63a4.875 4.875 0 0 1 4.87-4.87h111.747l-12.845 28.014c-1.789 3.701.279 10.632 6.822 10.63l177.653-.145a7.9 7.9 0 0 1 7.639 5.897l4.505 17.221c.016.058.038.145-.054.264z" data-original="#000000"/><path d="M199.316 83.604a7.5 7.5 0 0 0 7.5-7.5v-18.2h4.531c4.143 0 7.5-3.358 7.5-7.5s-3.357-7.5-7.5-7.5h-12.031a7.5 7.5 0 0 0-7.5 7.5v25.7a7.5 7.5 0 0 0 7.5 7.5z" data-original="#000000"/></g></svg>