<svg xmlns="http://www.w3.org/2000/svg" width="512" height="512" style="enable-background:new 0 0 512 512" xml:space="preserve"><g xmlns="http://www.w3.org/2000/svg"><path d="M130.967 256c0-13.27-10.796-24.066-24.067-24.066-13.27 0-24.066 10.796-24.066 24.066 0 13.271 10.796 24.066 24.066 24.066s24.067-10.795 24.067-24.066zm-33.134 0c0-4.999 4.067-9.066 9.066-9.066s9.067 4.067 9.067 9.066-4.067 9.066-9.067 9.066c-4.998 0-9.066-4.067-9.066-9.066zM313.983 222.083c13.271 0 24.066-10.796 24.066-24.066 0-13.271-10.796-24.066-24.066-24.066s-24.066 10.796-24.066 24.066 10.796 24.066 24.066 24.066zm0-33.133c4.999 0 9.066 4.067 9.066 9.066s-4.067 9.066-9.066 9.066-9.066-4.067-9.066-9.066c0-4.998 4.067-9.066 9.066-9.066z" data-original="#000000"/><path d="M248.5 198.017c0 36.107 29.376 65.483 65.483 65.483s65.483-29.376 65.483-65.483-29.376-65.483-65.483-65.483-65.483 29.375-65.483 65.483zm65.483-50.484c27.837 0 50.483 22.646 50.483 50.483S341.82 248.5 313.983 248.5 263.5 225.854 263.5 198.017s22.646-50.484 50.483-50.484zM296.095 50.006a15.869 15.869 0 0 0-6.822-10.475 15.817 15.817 0 0 0-12.264-2.238c-15.908 3.664-31.206 9.697-45.467 17.931-14.259 8.233-27.132 18.464-38.261 30.41a15.821 15.821 0 0 0-4.193 11.739 15.865 15.865 0 0 0 5.66 11.146l38.294 31.878h.001c2.949 2.455 6.513 3.666 10.07 3.666 4.102 0 8.196-1.611 11.328-4.783a83.863 83.863 0 0 1 17.735-13.678 83.806 83.806 0 0 1 20.714-8.52c8.052-2.104 13.066-9.83 11.666-17.974zm-6.997 52.563a98.848 98.848 0 0 0-24.423 10.043 98.813 98.813 0 0 0-20.908 16.129c-.288.29-.768.428-1.129.127l-38.294-31.877a.773.773 0 0 1-.287-.566.73.73 0 0 1 .199-.566c10.113-10.856 21.816-20.157 34.786-27.645 12.971-7.488 26.877-12.974 41.335-16.304a.733.733 0 0 1 .589.11.78.78 0 0 1 .348.532l8.459 49.102c.079.465-.28.813-.675.915z" data-original="#000000"/><path d="M488.5 331.333h-28.136c33-36.285 51.636-83.922 51.636-133.316C512 88.83 423.17 0 313.983 0c-32.454 0-64.647 8.025-93.098 23.207a7.5 7.5 0 0 0 7.062 13.234C254.233 22.414 283.983 15 313.983 15 414.899 15 497 97.101 497 198.017c0 50.394-20.985 98.809-57.653 133.316h-28.35a164.114 164.114 0 0 0 23.691-20.934 15.818 15.818 0 0 0 4.192-11.739 15.865 15.865 0 0 0-5.66-11.146l-38.296-31.879c-6.349-5.283-15.55-4.804-21.396 1.117a83.886 83.886 0 0 1-17.735 13.679 83.75 83.75 0 0 1-20.714 8.52c-8.054 2.104-13.068 9.831-11.665 17.974l8.459 49.1c.115.67.285 1.321.481 1.962a23.407 23.407 0 0 0-1.02 6.848v25.379a186.07 186.07 0 0 1-17.35.821 183.683 183.683 0 0 1-40.403-4.482c3.919-2.815 6.486-7.401 6.486-12.585v-17.134c0-8.547-6.953-15.5-15.5-15.5h-67.333V313.2h17.633c8.547 0 15.5-6.953 15.5-15.5v-83.4c0-8.547-6.953-15.5-15.5-15.5h-83.892c-.001-.261-.008-.523-.008-.783 0-57.583 26.296-110.661 72.145-145.624a7.5 7.5 0 1 0-9.096-11.928c-23.726 18.093-43.37 41.687-56.809 68.236-14.095 27.843-21.241 57.893-21.241 89.315 0 .26.007.522.008.783H65.2c-8.547 0-15.5 6.953-15.5 15.5v83.4c0 8.547 6.953 15.5 15.5 15.5h17.633v18.133H15.5c-8.547 0-15.5 6.953-15.5 15.5v17.134c0 8.547 6.953 15.5 15.5 15.5h1.067V496.5c0 8.547 6.953 15.5 15.5 15.5h13.266c4.142 0 7.5-3.357 7.5-7.5s-3.358-7.5-7.5-7.5H32.067a.5.5 0 0 1-.5-.5v-17.633h51.267V497h-7.367c-4.142 0-7.5 3.357-7.5 7.5s3.358 7.5 7.5 7.5H248c8.547 0 15.5-6.953 15.5-15.5V389.529a198.326 198.326 0 0 0 50.483 6.504c5.782 0 11.587-.275 17.35-.774V488.5c0 12.958 10.542 23.5 23.5 23.5H488.5c12.958 0 23.5-10.542 23.5-23.5V354.833c0-12.958-10.542-23.5-23.5-23.5zm-306.267 0H164.1V313.2h18.133zm-51.266 0V313.2H149.1v18.133zM64.7 297.7v-83.4a.5.5 0 0 1 .5-.5h149.667a.5.5 0 0 1 .5.5v83.4a.5.5 0 0 1-.5.5H65.2a.5.5 0 0 1-.5-.5zm33.133 15.5h18.133v18.133H97.833zM15 363.967v-17.134a.5.5 0 0 1 .5-.5h249.066c.275 0 .5.225.5.5v17.134c0 .275-.225.5-.5.5H15.5a.5.5 0 0 1-.5-.5zm16.567 99.9v-84.4h216.932l.001.086v84.315h-51.267v-42.2a7.5 7.5 0 0 0-7.5-7.5h-99.4a7.5 7.5 0 0 0-7.5 7.5v42.2H31.567zm66.266-34.7h34.7V497h-34.7zm49.7 67.833v-67.833h34.7V497zM248 497h-50.767v-18.133H248.5V496.5a.5.5 0 0 1-.5.5zm90.869-203.536a98.791 98.791 0 0 0 24.423-10.043 98.766 98.766 0 0 0 20.908-16.129c.286-.291.765-.431 1.129-.127l38.294 31.877a.773.773 0 0 1 .287.566.73.73 0 0 1-.199.566c-10.111 10.855-21.815 20.156-34.786 27.645a154.26 154.26 0 0 1-6.473 3.514h-27.619c-3.533 0-6.885.789-9.894 2.192l-6.745-39.148c-.079-.463.28-.811.675-.913zM497 488.5c0 4.686-3.814 8.5-8.5 8.5H354.833c-4.686 0-8.5-3.814-8.5-8.5V354.833c0-1.025.5-3.312 1.246-4.407 1.494-2.449 4.182-4.093 7.254-4.093H488.5c4.686 0 8.5 3.814 8.5 8.5z" data-original="#000000"/><path d="M473.529 369.518a15.79 15.79 0 0 0-12.404-3.829l-49.7 6.212c-7.882.986-13.825 7.72-13.825 15.662v44.95a23.935 23.935 0 0 0-9.066-1.779c-13.271 0-24.066 10.796-24.066 24.066s10.796 24.067 24.066 24.067S412.6 468.07 412.6 454.8v-38.936l51.268-6.409v23.058a23.917 23.917 0 0 0-9.067-1.779c-13.271 0-24.066 10.796-24.066 24.066s10.796 24.067 24.066 24.067 24.067-10.797 24.067-24.067v-73.45a15.792 15.792 0 0 0-5.339-11.832zm-84.996 94.349c-4.999 0-9.066-4.067-9.066-9.067 0-4.999 4.067-9.066 9.066-9.066s9.066 4.067 9.066 9.066c.001 5-4.067 9.067-9.066 9.067zm24.067-63.121v-13.183c0-.395.295-.728.686-.777l49.701-6.212c.23-.029.44.034.616.189s.265.353.265.587v12.987zm42.2 63.121c-4.999 0-9.066-4.067-9.066-9.067 0-4.999 4.067-9.066 9.066-9.066 5 0 9.067 4.067 9.067 9.066 0 5-4.067 9.067-9.067 9.067z" data-original="#000000"/></g></svg>