<svg xmlns="http://www.w3.org/2000/svg" width="512" height="512" viewBox="0 0 511.611 511.611" style="enable-background:new 0 0 512 512" xml:space="preserve"><g xmlns="http://www.w3.org/2000/svg"><path d="M134.973 152.275a7.466 7.466 0 0 0 4.527 1.525 7.488 7.488 0 0 0 5.981-2.968c22.583-29.772 35.976-65.191 38.725-102.387l3.204-40.351a7.5 7.5 0 0 0-14.953-1.187l-3.207 40.392c-2.538 34.342-14.89 67.008-35.72 94.468a7.5 7.5 0 0 0 1.443 10.508z" data-original="#000000"/><path d="M70.684 228.894H7.576a7.5 7.5 0 0 0 0 15h22.303v77.33a7.5 7.5 0 0 0 15 0v-77.33h21.084c10.517 22.662 16.062 47.68 16.062 72.658v4.672a7.5 7.5 0 0 0 15 0v-4.672c0-4.967-.208-9.935-.608-14.889h235.807c4.143 0 7.5-3.358 7.5-7.5s-3.357-7.5-7.5-7.5H94.591c-2.516-15.487-6.956-30.669-13.216-45.045 9.21-4.108 15.649-13.346 15.649-24.065 0-6.719-2.532-12.855-6.688-17.513 11.748-6.984 22.768-15.191 32.827-24.549a7.5 7.5 0 0 0-10.217-10.983 177.977 177.977 0 0 1-38.059 27.043 26.384 26.384 0 0 0-4.205-.34h-3.024c44.85-52.626 68.515-115.949 68.515-183.71a7.5 7.5 0 0 0-15 0c0 66.898-24.39 129.276-70.533 180.39l-2.998 3.321H27.541l4.923-10.144c15.292-31.511 23.462-65.243 24.281-100.257l1.731-73.046a7.5 7.5 0 0 0-7.32-7.676c-4.095-.104-7.577 3.18-7.676 7.32l-1.731 73.049c-.768 32.852-8.432 64.499-22.78 94.061l-8.101 16.693H7.576a7.5 7.5 0 0 0 0 15h63.107c6.253 0 11.341 5.088 11.341 11.341s-5.087 11.341-11.34 11.341zM328.402 48.404c2.241 30.333 11.792 60.112 27.62 86.116a7.495 7.495 0 0 0 10.306 2.508 7.5 7.5 0 0 0 2.507-10.306c-14.598-23.984-23.406-51.448-25.477-79.464l-3.204-40.351a7.487 7.487 0 0 0-8.07-6.883 7.5 7.5 0 0 0-6.883 8.07z" data-original="#000000"/><path d="M504.035 228.894h-62.107c-6.253 0-11.341-5.088-11.341-11.341s5.088-11.341 11.341-11.341h62.107c4.143 0 7.5-3.358 7.5-7.5s-3.357-7.5-7.5-7.5h-2.292l-8.101-16.693c-14.347-29.563-22.011-61.209-22.779-94.066l-1.731-72.046c-.1-4.141-3.538-7.401-7.679-7.318a7.5 7.5 0 0 0-7.317 7.678l1.731 72.042c.819 35.017 8.988 68.749 24.281 100.259l4.923 10.144h-20.104l-2.998-3.321C415.826 136.777 391.437 74.4 391.437 7.501c0-4.142-3.357-7.5-7.5-7.5s-7.5 3.358-7.5 7.5c0 67.761 23.665 131.085 68.515 183.71h-3.024c-1.435 0-2.841.12-4.214.341-19.153-10.121-36.139-23.516-50.492-39.842a7.5 7.5 0 0 0-10.585-.681 7.502 7.502 0 0 0-.681 10.585c13.414 15.259 28.958 28.151 46.296 38.45-4.142 4.655-6.665 10.781-6.665 17.488 0 10.721 6.442 19.961 15.656 24.068a188.755 188.755 0 0 0-13.215 45.042h-53.842c-4.143 0-7.5 3.358-7.5 7.5s3.357 7.5 7.5 7.5h52.016c-.4 4.954-.615 9.922-.615 14.889v4.672c0 4.142 3.357 7.5 7.5 7.5s7.5-3.358 7.5-7.5v-4.672c0-24.977 5.545-49.996 16.062-72.658h21.084v77.33c0 4.142 3.357 7.5 7.5 7.5s7.5-3.358 7.5-7.5v-77.33h21.303a7.5 7.5 0 1 0-.001-14.999zM478.026 412.447v-19.651c0-20.998-17.083-38.08-38.081-38.08-12.513 0-23.634 6.069-30.58 15.416-6.946-9.347-18.067-15.416-30.58-15.416-12.514 0-23.635 6.069-30.581 15.416-6.946-9.347-18.067-15.416-30.58-15.416s-23.634 6.069-30.58 15.416c-6.946-9.347-18.067-15.416-30.581-15.416s-23.635 6.069-30.58 15.416c-6.946-9.347-18.066-15.416-30.58-15.416s-23.635 6.069-30.581 15.416c-6.946-9.347-18.066-15.416-30.58-15.416s-23.635 6.069-30.581 15.416c-6.946-9.347-18.066-15.416-30.58-15.416-20.998 0-38.081 17.083-38.081 38.08v19.375c-19.601 6.302-33.83 24.704-33.83 46.374v45.566a7.5 7.5 0 0 0 15 0v-45.566c0-18.585 15.121-33.706 33.706-33.706s33.706 15.121 33.706 33.706v45.566a7.5 7.5 0 0 0 15 0v-45.566c0-18.585 15.121-33.706 33.706-33.706s33.706 15.121 33.706 33.706v45.566a7.5 7.5 0 0 0 15 0v-45.566c0-18.585 15.121-33.706 33.706-33.706s33.706 15.121 33.706 33.706v45.566a7.5 7.5 0 0 0 15 0v-45.316c0-18.724 15.232-33.956 33.956-33.956s33.956 15.232 33.956 33.956v45.316c0 4.142 3.357 7.5 7.5 7.5s7.5-3.358 7.5-7.5v-45.566c0-18.585 15.12-33.706 33.706-33.706s33.706 15.121 33.706 33.706v45.566c0 4.142 3.357 7.5 7.5 7.5s7.5-3.358 7.5-7.5v-45.566c0-18.585 15.12-33.706 33.706-33.706s33.706 15.121 33.706 33.706v45.566c0 4.142 3.357 7.5 7.5 7.5s7.5-3.358 7.5-7.5v-45.566c0-21.367-13.837-39.551-33.016-46.098zm-428.125-2.604v-17.047c0-12.727 10.354-23.08 23.081-23.08s23.08 10.354 23.08 23.08v33.119a49.055 49.055 0 0 0-5.081 6.71c-8.612-13.643-23.798-22.738-41.08-22.782zm82.287-.004a48.403 48.403 0 0 0-21.125 4.825v-21.868c0-12.727 10.354-23.08 23.081-23.08s23.08 10.354 23.08 23.08v23.989a48.409 48.409 0 0 0-25.036-6.946zm41.206 22.786a47.57 47.57 0 0 0-1.171-1.772v-38.057c0-12.727 10.354-23.08 23.081-23.08s23.08 10.354 23.08 23.08v17.205a48.821 48.821 0 0 0-3.784-.161c-17.335-.001-32.573 9.109-41.206 22.785zm82.468.089c-5.32-8.468-13.165-15.194-22.479-19.103v-20.815c0-12.727 10.354-23.08 23.081-23.08s23.08 10.354 23.08 23.08v20.375c-9.825 3.829-18.115 10.739-23.682 19.543zm41.4-22.875c-.912 0-1.818.03-2.718.079v-17.123c0-12.727 10.354-23.08 23.08-23.08s23.08 10.354 23.08 23.08v36.911a48.572 48.572 0 0 0-2.043 3.007c-8.681-13.73-23.988-22.874-41.399-22.874zm58.442 6.476v-23.519c0-12.727 10.354-23.08 23.081-23.08s23.08 10.354 23.08 23.08v22.287a48.392 48.392 0 0 0-21.941-5.243 48.377 48.377 0 0 0-24.22 6.475zm65.426 16.31a48.926 48.926 0 0 0-4.265-5.769v-34.06c0-12.727 10.354-23.08 23.08-23.08s23.081 10.354 23.081 23.08v17.061c-.231-.003-.459-.018-.69-.018-17.334 0-32.572 9.11-41.206 22.786z" data-original="#000000"/></g></svg>