<svg xmlns="http://www.w3.org/2000/svg" width="512" height="512" style="enable-background:new 0 0 512 512" xml:space="preserve"><g xmlns="http://www.w3.org/2000/svg"><path d="M314.453 86.283a7.5 7.5 0 0 0 7.5-7.5v-13.12c0-4.142-3.357-7.5-7.5-7.5s-7.5 3.358-7.5 7.5v13.121a7.5 7.5 0 0 0 7.5 7.499zM417.843 129.109a7.474 7.474 0 0 0 5.303-2.197l9.278-9.278a7.498 7.498 0 0 0 .001-10.606 7.498 7.498 0 0 0-10.606 0l-9.278 9.278a7.498 7.498 0 0 0-.001 10.606 7.472 7.472 0 0 0 5.303 2.197zM460.669 232.499h13.12c4.143 0 7.5-3.358 7.5-7.5s-3.357-7.5-7.5-7.5h-13.12c-4.143 0-7.5 3.358-7.5 7.5s3.357 7.5 7.5 7.5zM490.346 410.809a236.722 236.722 0 0 0-26.929-72.785 7.5 7.5 0 0 0-13.027 7.435 221.753 221.753 0 0 1 24.264 63.455H360.743c-15.401-11.12-24.438-23.565-24.807-34.239-.223-6.441 2.765-12.248 8.881-17.261 25.882-21.231 42.818-46.86 50.479-76.311a226.058 226.058 0 0 1 36.027 36.181 7.487 7.487 0 0 0 5.881 2.839 7.5 7.5 0 0 0 5.871-12.162 242.196 242.196 0 0 0-26.212-28.121 116.103 116.103 0 0 0 13.755-54.844c0-64.054-52.111-116.165-116.165-116.165-25.875 0-50.695 8.523-70.959 24.186-5.641-20.613-13.58-40.704-23.396-58.63C196.672 31.609 166.75 8.05 135.843 8.05c-27.526 0-54.928 19.288-77.156 54.311A7.499 7.499 0 0 0 61 72.712a7.5 7.5 0 0 0 10.351-2.313C90.73 39.866 113.634 23.05 135.843 23.05c24.811 0 50.725 21.337 71.098 58.542 19.569 35.737 31.253 80.533 31.253 119.829 0 21.25-3.541 39.431-10.525 54.037a7.5 7.5 0 0 0 3.531 10.001 7.46 7.46 0 0 0 3.23.736 7.501 7.501 0 0 0 6.771-4.267c4.196-8.777 7.291-18.597 9.289-29.357 1.839-.044 3.681-.074 5.509-.074 35.739 0 70.176 8.386 101.02 24.007-4.65 20.911-25.28 29.862-31.871 32.212-9.083 3.238-18.766 5.964-29.018 8.851-23.857 6.718-50.897 14.333-76.328 30.738-28.305 18.26-50.343 44.653-67.285 80.608H37.341c7.827-36.384 24.675-70.257 49.112-98.63 8.61 2.879 17.991 4.9 28.105 6.067v28.237a7.5 7.5 0 0 0 7.5 7.5h26.956a7.5 7.5 0 0 0 7.5-7.5v-28.164c25.217-2.817 45.956-10.977 61.657-24.31a7.499 7.499 0 0 0 .862-10.571 7.499 7.499 0 0 0-10.571-.862c-13.049 11.08-30.51 18.015-51.948 20.653v-80.904l47.046-46.474c.814.066 1.63.107 2.447.107a29.89 29.89 0 0 0 18.615-6.487 7.5 7.5 0 1 0-9.318-11.754c-5.968 4.73-14.531 4.229-19.924-1.163-5.393-5.393-5.893-13.958-1.163-19.924a7.5 7.5 0 0 0-1.218-10.536 7.498 7.498 0 0 0-10.536 1.218 29.873 29.873 0 0 0-6.435 16.969l-19.514 19.265v-25.019c6.46-5.139 10.925-12.725 11.937-21.476a7.5 7.5 0 0 0-6.589-8.312c-4.119-.482-7.836 2.474-8.312 6.589-1.002 8.665-8.345 15.199-17.081 15.199s-16.079-6.534-17.081-15.199c-.476-4.115-4.205-7.071-8.312-6.589a7.501 7.501 0 0 0-6.589 8.312 32.067 32.067 0 0 0 10.07 19.869v51.403l-9.084-8.964c.854-7.802-1.264-15.898-6.469-22.462a7.499 7.499 0 0 0-10.536-1.217 7.5 7.5 0 0 0-1.218 10.537c4.976 6.276 4.45 15.286-1.223 20.958-5.671 5.672-14.683 6.198-20.959 1.223a7.5 7.5 0 0 0-9.318 11.754c5.309 4.209 11.619 6.376 17.966 6.609l40.84 40.339v56.06c-53.799-6.818-81.065-40.382-81.065-99.841 0-31.771 7.913-68.299 21.71-100.219a7.5 7.5 0 1 0-13.769-5.951c-14.579 33.73-22.94 72.427-22.94 106.17 0 36.693 9.735 65.296 28.936 85.013 6.982 7.17 15.177 13.099 24.5 17.81-25.471 30.824-42.751 67.416-50.286 106.568C9.041 415.323 0 427.378 0 441.509v44.938c0 9.649 7.851 17.5 17.5 17.5h477c9.649 0 17.5-7.851 17.5-17.5v-44.938c0-14.136-9.048-26.194-21.654-30.7zM90.678 200.534a30.803 30.803 0 0 0 5.957-4.649 31.013 31.013 0 0 0 2.841-3.267l17.313 17.085a7.498 7.498 0 0 0 8.162 1.581 7.5 7.5 0 0 0 4.606-6.919v-61.487c2.231.488 4.542.753 6.911.753 1.715 0 3.398-.142 5.045-.402v36.364a7.501 7.501 0 0 0 12.769 5.337l25.902-25.571a30.083 30.083 0 0 0 4.587 5.906 30.193 30.193 0 0 0 3.332 2.875l-44.36 43.821a7.498 7.498 0 0 0-2.229 5.335v119.792h-11.956v-95.02a7.502 7.502 0 0 0-2.229-5.336l-36.651-36.198zm161.835 16.999c.448-5.192.682-10.56.682-16.111 0-16.788-2.009-34.514-5.757-52.172 18.512-16.395 42.199-25.417 67.016-25.417 55.782 0 101.165 45.382 101.165 101.165 0 15.602-3.6 30.932-10.446 44.791-41.897-33.661-94.094-52.291-149.172-52.291a254.46 254.46 0 0 0-3.488.035zm47.683 94.474c10.504-2.958 20.426-5.751 29.989-9.161 8.111-2.891 32.604-13.579 40.382-38.885a222.34 222.34 0 0 1 11.6 7.441c-6.042 28.827-21.786 53.845-46.862 74.414-9.781 8.018-14.747 18.177-14.36 29.377.388 11.24 6.237 22.846 16.786 33.722H169.219c35.51-70.015 86.108-84.273 130.977-96.908zM32.594 423.915h446.813c9.701 0 17.594 7.893 17.594 17.594v4.424H15v-4.424c0-9.701 7.893-17.594 17.594-17.594zM494.5 488.948h-477a2.503 2.503 0 0 1-2.5-2.5v-25.514h482v25.514c0 1.378-1.121 2.5-2.5 2.5z" data-original="#000000"/></g></svg>