<svg xmlns="http://www.w3.org/2000/svg" width="512" height="512" style="enable-background:new 0 0 512 512" xml:space="preserve"><g xmlns="http://www.w3.org/2000/svg"><path d="M223.942 327.705v45.235c0 11.547 9.395 20.941 20.941 20.941s20.94-9.395 20.94-20.941v-45.235c0-11.547-9.394-20.941-20.94-20.941s-20.941 9.394-20.941 20.941zm26.882 0v45.235a5.947 5.947 0 0 1-5.94 5.941 5.948 5.948 0 0 1-5.941-5.941v-45.235a5.948 5.948 0 0 1 5.941-5.941 5.947 5.947 0 0 1 5.94 5.941zM110.02 236.338a7.594 7.594 0 1 0 0 15.188 7.594 7.594 0 0 0 0-15.188zM283.814 87.977a7.594 7.594 0 1 0 0-15.188 7.594 7.594 0 0 0 0 15.188z" data-original="#000000"/><circle cx="428.358" cy="209.167" r="7.594" data-original="#000000"/><path d="M283.814 129.167a7.594 7.594 0 1 0 0-15.188 7.594 7.594 0 0 0 0 15.188z" data-original="#000000"/><path d="M322.486 0c-38.091 0-74.919 15.44-101.659 42.494-55.842-5.72-107.092 37.202-111.025 93.257-35.436 3.643-63.169 33.669-63.169 70.051v18.917c0 38.136 30.468 69.289 68.341 70.391 3.709 31.653 30.695 56.293 63.328 56.293h17.968v79.258c0 25.092-9.025 49.903-25.385 68.954-4.037 4.702-.575 12.386 5.69 12.386h83.437c4.143 0 7.5-3.357 7.5-7.5s-3.357-7.5-7.5-7.5h-21.069v-38.573c0-4.143-3.357-7.5-7.5-7.5s-7.5 3.357-7.5 7.5V497H191.58c12.844-19.618 19.69-42.905 19.69-66.34V299.113c0-4.143-3.357-7.5-7.5-7.5s-7.5 3.357-7.5 7.5v37.289h-17.968c-26.888 0-48.763-21.875-48.763-48.763 0-7.06-7.175-7.892-12.486-7.5-30.559 0-55.42-24.861-55.42-55.421v-18.917c0-30.56 24.861-55.421 55.42-55.421 4.143 0 7.5-3.357 7.5-7.5 0-51.515 47.068-92.256 98.038-85.064a7.516 7.516 0 0 0 6.522-2.302C253.57 29.389 286.73 15 322.486 15 393 15 450.367 72.367 450.367 142.881v81.838c0 30.56-24.861 55.421-55.42 55.421-5.311-.392-12.486.44-12.486 7.5 0 26.888-21.875 48.763-48.763 48.763h-14.932a58.622 58.622 0 0 1 11.31-15.863l28.193-28.194a7.5 7.5 0 0 0 0-10.606l-19.011-19.011a7.501 7.501 0 0 0-10.606 0l-15.735 15.734v-14.929c0-15.663 6.1-30.389 17.175-41.463l28.178-28.178a7.5 7.5 0 0 0 0-10.606l-19.011-19.012a7.5 7.5 0 0 0-10.608-.001l-54.429 54.429c-13.079 13.079-36.071 3.478-36.071-14.941V124.03c0-4.143-3.357-7.5-7.5-7.5H203.77a7.499 7.499 0 0 0-7.5 7.5v55.981l-15.734-15.735a7.5 7.5 0 0 0-10.608 0l-19.011 19.012a7.498 7.498 0 0 0 0 10.605l28.178 28.179c11.075 11.074 17.175 25.8 17.175 41.463 0 4.143 3.357 7.5 7.5 7.5s7.5-3.357 7.5-7.5c0-19.67-7.66-38.162-21.568-52.069l-22.874-22.875 8.404-8.405 14.624 14.626c7.715 7.713 21.414 1.957 21.414-8.87v-54.411h11.882v72.232c0 31.411 39.296 47.926 61.679 25.549l49.125-49.126 8.404 8.405-22.875 22.874c-13.908 13.908-21.567 32.4-21.567 52.07v20.972c0 10.783 13.635 16.533 21.333 8.837l14.705-14.704 8.404 8.404-22.89 22.891c-13.898 13.897-21.553 32.376-21.553 52.031v68.696c0 23.766 6.912 46.821 19.695 66.34h-21.485c-4.143 0-7.5 3.357-7.5 7.5s3.357 7.5 7.5 7.5h36.494a7.498 7.498 0 0 0 5.685-12.391c-16.373-19.033-25.39-43.521-25.39-68.949v-68.696c0-3.582.335-7.11.96-10.562h19.822c32.633 0 59.619-24.64 63.328-56.293 37.873-1.102 68.341-32.255 68.341-70.391v-81.838C465.367 64.096 401.271 0 322.486 0z" data-original="#000000"/></g></svg>