<svg xmlns="http://www.w3.org/2000/svg" width="512" height="512" style="enable-background:new 0 0 512 512" xml:space="preserve"><path xmlns="http://www.w3.org/2000/svg" d="M501.676 238.465c5.691 0 10.324-4.633 10.324-10.324v-17.786c0-5.69-4.633-10.324-10.324-10.324H370.309v-22.039h5.855c1.938 0 3.762-.492 5.352-1.36a11.235 11.235 0 0 0 5.882-9.874v-21.926a8 8 0 0 0-.058-.922l-.035-.207a6.326 6.326 0 0 0-.145-.719c-.015-.062-.027-.125-.047-.187a7.48 7.48 0 0 0-.695-1.668l-.094-.152a8.904 8.904 0 0 0-.398-.602l-.137-.176a7.347 7.347 0 0 0-1.254-1.258l-.176-.129a8.408 8.408 0 0 0-.629-.421c-.035-.02-.062-.043-.093-.063L263.5 69.273V50.25h46.176a8.919 8.919 0 0 0 7.637-4.348 8.907 8.907 0 0 0 .156-8.785l-7.106-13.004L317 13.621a8.87 8.87 0 0 0 .273-9.027A8.886 8.886 0 0 0 309.496 0H256a7.5 7.5 0 0 0-7.5 7.5v61.773l-120.137 69.055c-.035.024-.066.05-.105.07-.207.125-.41.262-.61.407l-.187.14c-.23.184-.457.375-.664.582a.069.069 0 0 0-.016.02 8.052 8.052 0 0 0-.566.644c-.05.063-.098.13-.145.196a6.376 6.376 0 0 0-.382.574c-.036.059-.075.113-.11.176a7.769 7.769 0 0 0-.687 1.648c-.02.07-.036.145-.055.215a7.835 7.835 0 0 0-.137.684c-.011.078-.027.16-.035.238-.035.3-.062.601-.062.91v21.926c0 6.195 5.043 11.234 11.234 11.234h5.855v22.04H10.324C4.633 200.031 0 204.663 0 210.354v17.786c0 5.691 4.633 10.324 10.324 10.324h2.797v156.847h-2.797c-5.691 0-10.324 4.63-10.324 10.32v17.786c0 5.691 4.633 10.324 10.324 10.324h491.352c5.691 0 10.324-4.633 10.324-10.324v-17.785c0-5.692-4.633-10.32-10.324-10.32h-2.797V238.465zM263.5 15h34.883l-2.621 4.14a8.885 8.885 0 0 0-.29 9l3.883 7.11H263.5zM256 82.266l95.8 55.066H160.2zm-116.398 80.726v-10.66h232.796v10.66zm215.707 15v217.32h-10.711v-217.32zm-42.641 114.055H199.332c-4.14 0-7.5 3.36-7.5 7.5s3.36 7.5 7.5 7.5h7.8v88.265h-24.73v-217.32h147.196v217.32H304.87v-88.265h7.797a7.5 7.5 0 1 0 0-15zm-22.8 15v88.265H263.5v-88.265zm-41.368 0v88.265h-26.367v-88.265zm-81.098-129.055v217.32h-10.71v-217.32zM15 215.032h126.691v8.433H72.496a7.497 7.497 0 0 0-7.5 7.5 7.5 7.5 0 0 0 7.5 7.5h69.195v156.847H28.121V238.465h9.711a7.5 7.5 0 0 0 7.5-7.5c0-4.145-3.355-7.5-7.5-7.5H15zm482 203.71H15v-8.43h482zm0-195.277h-75.75a7.497 7.497 0 0 0-7.5 7.5 7.5 7.5 0 0 0 7.5 7.5h62.629v156.847h-113.57V238.465h16.23a7.5 7.5 0 1 0 0-15h-16.23v-8.434H497zm0 0" data-original="#000000"/><path xmlns="http://www.w3.org/2000/svg" d="M38.7 269.676v25.09c0 6.234 5.07 11.304 11.308 11.304h68.656c6.234 0 11.309-5.07 11.309-11.304v-25.09c0-6.235-5.07-11.309-11.309-11.309H50.008c-6.238 0-11.309 5.074-11.309 11.309zm15 3.691h61.273v17.703H53.699zM118.664 328.703H50.008c-6.235 0-11.309 5.074-11.309 11.309v25.086c0 6.234 5.07 11.308 11.309 11.308h68.656c6.234 0 11.309-5.074 11.309-11.308v-25.086c0-6.239-5.075-11.309-11.309-11.309zm-3.691 32.703H53.699v-17.703h61.274zM382.027 269.676v25.09c0 6.234 5.07 11.304 11.309 11.304h68.656c6.235 0 11.309-5.07 11.309-11.304v-25.09c0-6.235-5.07-11.309-11.309-11.309h-68.656c-6.234 0-11.309 5.074-11.309 11.309zm15 3.691h61.274v17.703h-61.274zM461.992 328.703h-68.656c-6.234 0-11.309 5.074-11.309 11.309v25.086c0 6.234 5.07 11.308 11.309 11.308h68.656c6.235 0 11.309-5.074 11.309-11.308v-25.086c0-6.239-5.07-11.309-11.309-11.309zm-3.691 32.703h-61.274v-17.703h61.274zM307.27 200.031H204.73c-5.242 0-9.507 4.266-9.507 9.508v37.484c0 5.243 4.265 9.508 9.507 9.508h102.543c5.243 0 9.508-4.265 9.508-9.508V209.54c-.004-5.242-4.265-9.508-9.511-9.508zm-5.493 41.5H210.22v-26.5h91.558zm0 0" data-original="#000000"/></svg>