<svg xmlns="http://www.w3.org/2000/svg" width="512" height="512" style="enable-background:new 0 0 512 512" xml:space="preserve"><path d="M172.106 323.616H67.894L3.5 388.009v120.606h233V388.009l-64.394-64.393zm-70.606 170h-83v-95h83v95zm-72.394-110 45-45h76.787l-45 45H29.106zm152.394 110h-25v-52.5c0-6.893 5.607-12.5 12.5-12.5s12.5 5.607 12.5 12.5v52.5zm40 0h-25v-52.5c0-15.164-12.336-27.5-27.5-27.5s-27.5 12.336-27.5 27.5v52.5h-25v-99.394l52.5-52.5 52.5 52.5v99.394z" data-original="#000000" xmlns="http://www.w3.org/2000/svg"/><path d="M33.5 413.616v55h53v-55h-53zm38 40h-23v-25h23v25zM403.5 353.616v55h75v-55h-75zm60 40h-45v-25h45v25z" data-original="#000000" xmlns="http://www.w3.org/2000/svg"/><path d="M478.5 251.616V229.01l-64.394-64.394H408.5v-29h-45v29h-36.848L408.396 30.85l89.12 128.539 12.327-8.547L407.604 3.381l-65.445 107.094-56.689-64.302-105.932 144.15L75.546 87.097l-72.71 85.147 11.407 9.741 62.21-72.853 94.103 93.409-36.062 49.073H0v15h223.5v93h30v99h255V328.009l-30-30v-31.394H512v-15h-33.5zm-100-101h15v25h-15v-25zm-15 29v11h45v-10.394l44.394 44.394h-98.787l-45-45H363.5zm100 60v43.394l-19.394-19.394H358.5v-24h105zm-240 12h-70.391L286.531 70.059l47.441 53.813-24.898 40.744h-21.18L223.5 229.009v22.607zm40.001 66.395-10 10v16.606H238.5V235.223l52.5-52.5 52.5 52.5v28.394h-25.606l-8.26 8.26c-4.98-4.602-11.562-7.26-18.633-7.26-15.164 0-27.5 12.336-27.5 27.5v25.894zm35.505-35.507L278.5 303.009v-10.894c0-6.893 5.607-12.5 12.5-12.5a12.447 12.447 0 0 1 8.006 2.889zM333.5 443.616h-25v-52.5c0-6.893 5.607-12.5 12.5-12.5s12.5 5.607 12.5 12.5v52.5zm40 0h-25v-52.5c0-15.164-12.336-27.5-27.5-27.5s-27.5 12.336-27.5 27.5v52.5h-25V334.223l52.5-52.5 52.5 52.5v109.393zm120 0h-105v-105h105v105zm-10.607-120h-98.787l-45-45h98.787l45 45z" data-original="#000000" xmlns="http://www.w3.org/2000/svg"/><path d="M175 3.616c-20.678 0-37.5 16.822-37.5 37.5s16.822 37.5 37.5 37.5 37.5-16.822 37.5-37.5c0-20.679-16.822-37.5-37.5-37.5zm0 60c-12.407 0-22.5-10.093-22.5-22.5s10.093-22.5 22.5-22.5 22.5 10.093 22.5 22.5-10.093 22.5-22.5 22.5z" data-original="#000000" xmlns="http://www.w3.org/2000/svg"/><g xmlns="http://www.w3.org/2000/svg"><path transform="rotate(-45.001 193.694 398.244)" data-original="#000000" d="M186.197 390.739h14.999v15.001h-14.999z"/><path transform="rotate(-134.999 171.893 376.438)" data-original="#000000" d="M163.558 368.936h16.669v14.999h-16.669z"/></g><g xmlns="http://www.w3.org/2000/svg"><path data-original="#000000" d="M384 293.616h15v15h-15zM414 293.616h25v15h-25z"/></g><g xmlns="http://www.w3.org/2000/svg"><path transform="rotate(-134.999 324.393 316.938)" data-original="#000000" d="M312.522 309.436h23.74v14.999h-23.74z"/><path transform="rotate(-45.001 348.696 341.245)" data-original="#000000" d="M341.196 333.739h14.999v14.999h-14.999z"/></g><g xmlns="http://www.w3.org/2000/svg"><path transform="rotate(-134.999 266.304 239.241)" data-original="#000000" d="M258.803 231.74h14.999v14.999h-14.999z"/><path transform="rotate(-45.001 288.608 216.94)" data-original="#000000" d="M279.566 209.436h18.084v14.999h-18.084z"/></g><g xmlns="http://www.w3.org/2000/svg"><path transform="rotate(-34.735 444.446 122.325)" data-original="#000000" d="M436.947 91.647h15v61.377h-15z"/><path transform="rotate(-34.735 474.754 166.034)" data-original="#000000" d="M467.253 158.545h15v15h-15z"/></g><g xmlns="http://www.w3.org/2000/svg"><path transform="rotate(-143.688 240.961 170.066)" data-original="#000000" d="M233.456 162.572h15v15h-15z"/><path transform="rotate(-53.687 271.212 128.913)" data-original="#000000" d="M242.626 121.415h57.151v15h-57.151z"/></g><g xmlns="http://www.w3.org/2000/svg"><path transform="scale(-1) rotate(40.494 517.495 -98.194)" data-original="#000000" d="M28.724 183.393h15v15h-15z"/><path transform="rotate(-49.506 64.321 157.978)" data-original="#000000" d="M43.552 150.486h41.547v15H43.552z"/></g><g xmlns="http://www.w3.org/2000/svg"><path transform="rotate(-135.211 114.465 178.562)" data-original="#000000" d="M106.767 171.063h15.385v15h-15.385z"/><path transform="rotate(-45.211 135.9 199.84)" data-original="#000000" d="M128.388 192.332h15v15h-15z"/></g><path data-original="#000000" d="M16 279.618h40v15H16zM88 296.618h19v15H88zM135 277.618h45v15h-45zM272 471.618h48v15h-48zM349 492.618h15v15h-15zM389 477.618h40v15h-40zM456 493.618h39v15h-39z" xmlns="http://www.w3.org/2000/svg"/></svg>