<svg xmlns="http://www.w3.org/2000/svg" width="512" height="512" style="enable-background:new 0 0 512 512" xml:space="preserve"><g xmlns="http://www.w3.org/2000/svg"><path d="M237.571 146.64c5.23 2.008 11.51 1.997 18.072 2.007h1.018c6.479 0 12.594-.033 17.732-2.007 5.094-1.957 11.166-6.594 11.166-17.57 0-16.309-13.269-29.577-29.577-29.577s-29.577 13.269-29.577 29.577c0 10.976 6.073 15.613 11.166 17.57zm18.411-32.148c8.038 0 14.577 6.539 14.577 14.577 0 2.975-.647 3.223-1.544 3.567-2.632 1.011-7.517 1.017-12.693 1.01h-.68c-5.161.002-10.062.001-12.692-1.01-.897-.345-1.545-.594-1.545-3.567 0-8.038 6.539-14.577 14.577-14.577zM255.982 91.616c4.143 0 7.5-3.357 7.5-7.5V78.11c0-4.143-3.357-7.5-7.5-7.5s-7.5 3.357-7.5 7.5v6.006a7.5 7.5 0 0 0 7.5 7.5zM220.989 98.068a7.498 7.498 0 0 0 10.245 2.745 7.5 7.5 0 0 0 2.745-10.245l-3.004-5.202a7.501 7.501 0 0 0-10.245-2.745 7.5 7.5 0 0 0-2.745 10.245zM280.73 100.813a7.498 7.498 0 0 0 10.245-2.745l3.004-5.202a7.5 7.5 0 0 0-12.99-7.5l-3.004 5.202a7.5 7.5 0 0 0 2.745 10.245z" data-original="#000000"/><path d="M504.5 284.113a7.499 7.499 0 0 0-7.5 7.5v19.038h-22.293v-19.038c0-4.143-3.357-7.5-7.5-7.5s-7.5 3.357-7.5 7.5v19.038h-22.294v-41.973c0-5.238-4.262-9.5-9.5-9.5h-1.563V230.35c0-20.748-15.902-37.853-36.159-39.762V175.38c0-7.337-2.069-14.466-5.978-20.607-11.278-17.776-25.676-32.68-42.836-44.359.003-.263.02-.522.02-.786 0-38.503-31.325-69.828-69.829-69.828h-31.17c-38.503 0-69.828 31.325-69.828 69.828 0 .266.017.528.02.793a151.425 151.425 0 0 0-19.813 16.099 7.5 7.5 0 0 0 10.408 10.8 136.737 136.737 0 0 1 11.656-10.019 69.35 69.35 0 0 0 6.709 16.522 119.657 119.657 0 0 0-24.523 27.813 7.496 7.496 0 0 0-1.177 4.033v31.17c0 8.624-7.016 15.641-15.64 15.641h-7.05c-7.434 0-13.48 6.047-13.48 13.479v23.219h-17.07V230.35c0-13.752 11.188-24.939 24.939-24.939h3.73c4.143 0 7.5-3.357 7.5-7.5v-22.53c0-4.406 1.214-8.688 3.509-12.38a7.499 7.499 0 0 0-2.409-10.329 7.5 7.5 0 0 0-10.329 2.409c-3.775 6.071-5.771 13.091-5.771 20.3v15.207c-20.261 1.906-36.17 19.012-36.17 39.763v28.829h-1.523c-5.238 0-9.5 4.262-9.5 9.5v41.973H52.293v-19.038c0-4.143-3.357-7.5-7.5-7.5s-7.5 3.357-7.5 7.5v19.038H15v-19.038c0-4.143-3.357-7.5-7.5-7.5s-7.5 3.357-7.5 7.5V459.7c0 6.893 5.607 12.5 12.5 12.5h487c6.893 0 12.5-5.607 12.5-12.5v-39.669c0-4.143-3.357-7.5-7.5-7.5s-7.5 3.357-7.5 7.5V457.2h-59.587v-84.011H497v11.848c0 4.143 3.357 7.5 7.5 7.5s7.5-3.357 7.5-7.5v-93.424a7.5 7.5 0 0 0-7.5-7.5zM371.553 162.816a23.352 23.352 0 0 1 3.638 12.563v22.53c0 4.143 3.357 7.5 7.5 7.5h3.72c13.752 0 24.939 11.188 24.939 24.939v28.829h-17.07V235.96c0-7.433-6.043-13.479-13.471-13.479h-7.06c-8.618 0-15.63-7.017-15.63-15.641v-31.17a7.5 7.5 0 0 0-1.179-4.037 119.931 119.931 0 0 0-24.528-27.806 69.357 69.357 0 0 0 6.715-16.539c12.761 9.77 23.638 21.678 32.426 35.528zM368.225 457.2H263.48v-21.72h104.744v21.72zm-224.45-36.72V312.814c13.049-7.435 26.146-13.586 39.247-18.447V420.48zm54.247-131.115c16.867-4.985 33.716-7.816 50.458-8.47v62.972c-11.123 3.252-19.273 13.537-19.273 25.698s8.151 22.447 19.273 25.699v25.218h-50.458zm57.958 91.975c-6.492 0-11.773-5.283-11.773-11.776 0-6.492 5.281-11.774 11.773-11.774 6.494 0 11.778 5.282 11.778 11.774.001 6.493-5.283 11.776-11.778 11.776zm7.5 13.923c11.125-3.252 19.278-13.538 19.278-25.7 0-12.161-8.153-22.446-19.278-25.698v-62.974c16.744.65 33.594 3.477 50.462 8.46V420.48H263.48zm65.462 25.217V294.352c13.114 4.863 26.222 11.02 39.282 18.463V420.48zM240.397 54.8h31.17c30.232 0 54.829 24.596 54.829 54.828s-24.597 54.829-54.829 54.829h-31.17c-30.232 0-54.828-24.597-54.828-54.829S210.165 54.8 240.397 54.8zM132.68 237.48h5.53c16.895 0 30.64-13.745 30.64-30.641v-28.941a104.668 104.668 0 0 1 19.453-21.838c12.798 14.343 31.405 23.396 52.095 23.396h31.17c20.689 0 39.296-9.052 52.094-23.394a104.873 104.873 0 0 1 19.459 21.837v28.939c0 16.896 13.74 30.641 30.63 30.641h5.53v21.698h-1.556c-5.238 0-9.5 4.262-9.5 9.5v27.004c-74.483-39.78-149.906-39.803-224.449.002v-27.006c0-5.238-4.262-9.5-9.5-9.5h-1.596zm-58.093 88.171v32.538H52.293v-32.538zm-37.294 0v32.538H15v-32.538zM15 373.189h59.587V457.2H15zm74.587-7.5v-91.511h3.504l.019.001h32.069l.019-.001h3.576V457.2H89.587zm54.188 69.791H248.48v21.72H143.775zm239.45-7.5V274.179h3.536l.019.001.019-.001h32.031l.019.001.019-.001h3.544V457.2h-39.188v-29.22zm54.188-102.329h22.294v32.538h-22.294zm37.294 32.538v-32.538H497v32.538z" data-original="#000000"/></g></svg>