<svg xmlns="http://www.w3.org/2000/svg" width="512" height="512" viewBox="0 0 512 512.001" style="enable-background:new 0 0 512 512" xml:space="preserve"><g fill="#fff"><path xmlns="http://www.w3.org/2000/svg" d="M193.797.023C87.87 1.496 1.547 87.746.02 193.711c-.973 67.113 31.988 130.516 89.804 167.98 6.824 4.422 12.5 10.41 16.406 17.317l29.825 52.683a7.677 7.677 0 0 0 10.465 2.899 7.677 7.677 0 0 0 2.898-10.465l-29.82-52.684c-5.125-9.046-12.532-16.875-21.422-22.636-51.985-33.688-83.656-91.29-82.801-154.875 1.41-97.762 82.707-178.57 181.227-178.57 99.933 0 181.242 81.304 181.242 181.242 0 61.683-30.95 118.57-82.781 152.18-8.918 5.78-16.34 13.616-21.461 22.663l-67.848 119.856c-4.027 7.117-14.277 7.12-18.309 0l-22.894-40.446a7.678 7.678 0 1 0-13.363 7.563l22.894 40.445c9.914 17.512 35.121 17.52 45.035 0l67.848-119.851c3.91-6.903 9.597-12.903 16.45-17.344 56.218-36.45 89.784-98.156 89.784-165.066C393.2 86.687 302.777-1.613 193.797.023zm0 0" data-original="#000000" transform="translate(60)"/><path xmlns="http://www.w3.org/2000/svg" d="M324.348 252.996a8.192 8.192 0 0 0 10.547-4.785C376.285 138.05 277.156 24.03 160.8 53.105 81.5 72.918 33.523 152.922 53.328 232.175 69.793 298.07 128.664 344.09 196.496 344.09c49.285 0 96.059-24.559 123.734-66.942a8.185 8.185 0 0 0-2.378-11.336c-3.786-2.476-8.86-1.41-11.336 2.38-24.653 37.753-66.293 59.515-110.02 59.515-60.3 0-112.64-40.914-127.277-99.5C51.594 157.687 94.305 86.605 164.773 69 268.512 43.074 356.23 144.863 319.56 242.453c-1.59 4.23.554 8.953 4.789 10.543zm0 0" data-original="#000000" transform="translate(60)"/><path xmlns="http://www.w3.org/2000/svg" d="M196.602 310.527c17.214 0 31.222-14.007 31.222-31.222v-51.703h51.703c17.215 0 31.223-14.008 31.223-31.223 0-17.219-14.008-31.227-31.223-31.227h-51.703v-51.699c0-17.219-14.008-31.226-31.222-31.226-17.22 0-31.227 14.007-31.227 31.226v51.7h-51.7c-17.218 0-31.226 14.007-31.226 31.226a31.177 31.177 0 0 0 16.613 27.598 7.676 7.676 0 0 0 10.38-3.184 7.678 7.678 0 0 0-3.184-10.383 15.848 15.848 0 0 1-8.453-14.031c0-8.75 7.12-15.871 15.87-15.871h53.727c7.352 0 13.328-5.98 13.328-13.328v-53.727c0-8.75 7.122-15.871 15.872-15.871s15.867 7.121 15.867 15.871v53.727c0 7.347 5.98 13.328 13.332 13.328h53.726c8.75 0 15.868 7.12 15.868 15.87s-7.118 15.868-15.868 15.868h-53.726c-7.352 0-13.332 5.98-13.332 13.328v53.73c0 8.75-7.117 15.868-15.867 15.868s-15.872-7.117-15.872-15.867v-53.73c0-7.348-5.976-13.329-13.328-13.329h-34.48a7.679 7.679 0 1 0 0 15.356h32.453v51.703c0 17.215 14.008 31.222 31.227 31.222zm0 0" data-original="#000000" transform="translate(60)"/></g></svg>