<?xml version="1.0" encoding="UTF-8" standalone="no"?>
<!DOCTYPE svg PUBLIC "-//W3C//DTD SVG 1.1//EN" "http://www.w3.org/Graphics/SVG/1.1/DTD/svg11.dtd">
<svg version="1.1" xmlns="http://www.w3.org/2000/svg" xmlns:xlink="http://www.w3.org/1999/xlink" preserveAspectRatio="xMidYMid meet" viewBox="0 0 640 640" width="640" height="640"><defs><path d="M475.42 151.29C473.92 152.8 461.88 164.84 460.37 166.35C456.7 170.01 456.7 175.96 460.37 179.63C462.2 181.46 464.61 182.38 467.01 182.38C469.42 182.38 471.82 181.46 473.66 179.63C475.16 178.12 487.2 166.08 488.71 164.58C492.38 160.91 492.38 154.96 488.71 151.29C485.04 147.62 479.09 147.62 475.42 151.29Z" id="a15tdXmx5d"></path><path d="M166.35 460.37C164.84 461.88 152.8 473.92 151.29 475.42C147.62 479.09 147.62 485.04 151.29 488.71C153.13 490.54 155.53 491.46 157.93 491.46C160.34 491.46 162.74 490.54 164.58 488.71C166.08 487.2 178.12 475.16 179.63 473.65C183.3 469.99 183.3 464.04 179.63 460.37C175.96 456.7 170.01 456.7 166.35 460.37Z" id="c1UYfdpFaO"></path><path d="M473.65 460.37C469.99 456.7 464.04 456.7 460.37 460.37C456.7 464.04 456.7 469.99 460.37 473.65C461.88 475.16 473.92 487.2 475.42 488.71C477.26 490.54 479.66 491.46 482.07 491.46C484.47 491.46 486.88 490.54 488.71 488.71C492.38 485.04 492.38 479.09 488.71 475.42C485.7 472.41 475.16 461.88 473.65 460.37Z" id="d16MBisZRz"></path><path d="M164.58 151.29C160.91 147.62 154.96 147.62 151.29 151.29C147.62 154.96 147.62 160.91 151.29 164.58C152.8 166.08 164.84 178.12 166.35 179.63C168.18 181.46 170.58 182.38 172.99 182.38C175.39 182.38 177.8 181.46 179.63 179.63C183.3 175.96 183.3 170.01 179.63 166.35C176.62 163.34 166.08 152.8 164.58 151.29Z" id="a4shfkioVr"></path><path d="M154.88 286.4C153.98 289.51 149.45 305.04 141.3 333.01C136.91 315.05 134.48 305.08 133.99 303.08C133.47 300.94 130.98 299.99 128.57 299.99C126.08 299.99 123.59 300.94 123.07 303.08C122.58 305.08 120.15 315.05 115.76 333.01C107.61 305.04 103.08 289.51 102.18 286.4C101.75 284.77 100.2 284.17 98.48 284.17C95.3 284.17 91.35 286.15 91.35 288.64C91.35 288.98 91.43 289.41 91.52 289.67C93.22 295.08 106.84 338.34 108.54 343.75C109.32 346.33 112.58 347.54 115.85 347.54C119.03 347.54 122.38 346.33 122.99 343.75C123.36 342.2 125.22 334.47 128.58 320.54C131.88 334.47 133.71 342.2 134.08 343.75C134.68 346.33 138.03 347.54 141.21 347.54C144.48 347.54 147.66 346.33 148.52 343.75C150.22 338.34 163.84 295.08 165.55 289.67C165.63 289.41 165.72 288.98 165.72 288.64C165.72 286.15 161.76 284.17 158.58 284.17C156.86 284.17 155.31 284.77 154.88 286.4Z" id="a1eJsp0QYJ"></path><path d="M520.19 337.22L520.19 319.94C528.03 319.94 532.39 319.94 533.26 319.94C535.67 319.94 536.79 317.62 536.79 315.64C536.79 313.32 535.5 311.17 533.26 311.17C532.39 311.17 528.03 311.17 520.19 311.17L520.19 293.97L544.53 293.97C544.53 293.97 544.53 293.97 544.53 293.97C546.76 293.97 548.05 291.65 548.05 288.98C548.05 286.66 546.93 284.17 544.53 284.17C541.47 284.17 516.98 284.17 513.92 284.17C511.42 284.17 509.02 285.37 509.02 287.69C509.02 293.27 509.02 337.91 509.02 343.5C509.02 345.82 511.42 347.02 513.92 347.02C516.98 347.02 541.47 347.02 544.53 347.02C546.93 347.02 548.05 344.53 548.05 342.21C548.05 339.54 546.76 337.22 544.53 337.22C541.28 337.22 533.17 337.22 520.19 337.22Z" id="dAv50IJ"></path><path d="M329.67 85.01C329.67 87.31 329.67 98.83 329.67 119.57C319.72 100.33 314.18 89.64 313.08 87.5C310.41 82.43 308.78 81.57 304.74 81.57C301.9 81.57 299.15 82.69 299.15 85.09C299.15 90.67 299.15 135.31 299.15 140.89C299.15 143.22 301.9 144.42 304.74 144.42C307.49 144.42 310.33 143.22 310.33 140.89C310.33 138.59 310.33 127.07 310.33 106.33C321.42 127.07 327.58 138.59 328.81 140.89C330.27 143.56 332.6 144.42 335.26 144.42C338.01 144.42 340.85 143.21 340.85 140.89C340.85 135.31 340.85 90.6 340.85 85.01C340.85 82.6 338.01 81.57 335.26 81.57C332.42 81.57 329.67 82.6 329.67 85.01Z" id="a3KgpeEas1"></path><path d="M322.06 495.89C329.29 495.89 331.26 499.15 333.93 499.15C337.03 499.15 338.4 495.2 338.4 493.22C338.4 487.55 327.14 486.34 322.06 486.34C312.18 486.34 301.17 490.73 301.17 503.54C301.17 523.92 328.77 519.96 328.77 532.86C328.77 538.01 324.3 540.34 319.14 540.34C310.37 540.34 308.05 533.72 304.52 533.72C301.86 533.72 299.62 537.33 299.62 539.74C299.62 544.72 308.22 550.4 319.48 550.4C331.35 550.4 339.95 544.03 339.95 531.74C339.95 509.47 312.35 513.17 312.35 502.51C312.35 498.38 315.87 495.89 322.06 495.89Z" id="c84Ptfhmsf"></path><path d="M320 0C234.53 0 154.17 33.29 93.73 93.73C33.29 154.17 0 234.53 0 320C0 405.48 33.29 485.83 93.73 546.28C154.17 606.71 234.53 640 320 640C405.48 640 485.83 606.71 546.28 546.28C606.71 485.83 640 405.48 640 320C640 234.53 606.71 154.17 546.28 93.73C485.83 33.29 405.48 0 320 0ZM320 621.21C239.54 621.21 163.9 589.88 107.01 532.99C50.12 476.1 18.79 400.46 18.79 320C18.79 239.54 50.12 163.9 107.01 107.01C163.9 50.12 239.54 18.79 320 18.79C400.46 18.79 476.1 50.12 532.99 107.01C589.88 163.9 621.21 239.54 621.21 320C621.21 400.46 589.88 476.1 532.99 532.99C476.1 589.88 400.46 621.21 320 621.21Z" id="aP2nplT8Q"></path><path d="M508.36 116.07C456.95 68.56 390.05 42.39 320 42.39C249.88 42.39 182.94 68.6 131.51 116.19C80.36 163.52 49.05 227.69 43.34 296.88C42.92 302.05 46.76 306.58 51.93 307.01C52.19 307.03 52.46 307.04 52.71 307.04C57.55 307.04 61.66 303.33 62.07 298.42C67.39 233.93 96.58 174.11 144.27 129.98C192.22 85.61 254.63 61.18 320 61.18C385.31 61.18 447.68 85.57 495.61 129.87C543.27 173.91 572.5 233.64 577.91 298.06C578.34 303.23 582.89 307.07 588.05 306.63C593.22 306.2 597.06 301.66 596.63 296.49C590.83 227.38 559.48 163.31 508.36 116.07Z" id="b7KmCg72V"></path><path d="M577.97 341.18C572.74 405.76 543.59 465.68 495.88 509.89C447.9 554.34 385.44 578.82 320 578.82C254.54 578.82 192.07 554.33 144.1 509.86C96.38 465.63 67.23 405.7 62.02 341.1C61.61 335.93 57.08 332.08 51.91 332.49C46.74 332.91 42.88 337.44 43.3 342.61C48.89 411.91 80.15 476.2 131.32 523.64C182.78 571.34 249.79 597.61 320 597.61C390.19 597.61 457.19 571.35 508.64 523.67C559.81 476.25 591.08 411.98 596.69 342.7C597.11 337.53 593.26 332.99 588.09 332.58C582.92 332.16 578.39 336.01 577.97 341.18Z" id="c6fvk8iIr"></path><path d="M367.55 306.37C362.86 290.04 349.97 277.14 333.63 272.45C320.38 264.02 214.35 196.56 201.1 188.13C197.38 185.77 192.53 186.3 189.41 189.41C186.3 192.53 185.77 197.38 188.13 201.1C196.56 214.35 264.02 320.37 272.45 333.63C277.14 349.96 290.04 362.86 306.37 367.55C319.63 375.98 425.65 443.44 438.91 451.87C440.45 452.86 442.2 453.34 443.94 453.34C446.37 453.34 448.77 452.4 450.59 450.59C453.7 447.47 454.23 442.62 451.87 438.9C435.01 412.4 375.98 319.63 367.55 306.37ZM286.79 283.37C285.59 284.45 284.45 285.59 283.37 286.79C283.2 286.97 283.05 287.16 282.89 287.34C282.52 287.76 282.15 288.18 281.79 288.61C281.59 288.86 281.4 289.11 281.21 289.36C280.9 289.74 280.59 290.12 280.3 290.52C280.1 290.79 279.9 291.07 279.71 291.35C279.44 291.73 279.16 292.11 278.9 292.49C278.7 292.79 278.52 293.1 278.32 293.4C278.08 293.78 277.84 294.15 277.6 294.54C277.41 294.85 277.23 295.18 277.05 295.5C276.83 295.88 276.61 296.26 276.4 296.65C276.22 296.98 276.06 297.32 275.89 297.65C275.69 298.04 275.49 298.43 275.3 298.82C275.14 299.17 274.98 299.52 274.83 299.87C274.65 300.26 274.47 300.66 274.31 301.06C274.27 301.15 274.22 301.25 274.18 301.34C271.01 296.37 255.17 271.47 226.66 226.66C271.47 255.17 296.37 271.01 301.35 274.18C301.25 274.22 301.16 274.27 301.06 274.31C300.66 274.47 300.26 274.65 299.87 274.83C299.52 274.99 299.17 275.14 298.83 275.3C298.43 275.49 298.04 275.69 297.65 275.89C297.32 276.06 296.98 276.22 296.65 276.4C296.26 276.61 295.88 276.84 295.49 277.06C295.17 277.24 294.85 277.42 294.54 277.6C294.15 277.84 293.77 278.09 293.39 278.33C293.09 278.52 292.79 278.71 292.5 278.91C292.11 279.17 291.73 279.44 291.34 279.72C291.07 279.91 290.79 280.1 290.52 280.3C290.12 280.6 289.73 280.91 289.34 281.22C289.1 281.41 288.85 281.6 288.62 281.79C288.18 282.15 287.76 282.52 287.34 282.89C287.16 283.05 286.97 283.2 286.79 283.37ZM317.76 350.6C317.33 350.56 316.89 350.53 316.46 350.48C316.28 350.45 316.11 350.43 315.93 350.41C315.51 350.35 315.1 350.29 314.68 350.22C314.51 350.19 314.34 350.16 314.17 350.12C313.73 350.04 313.29 349.94 312.85 349.84C301.67 347.16 292.85 338.34 290.17 327.16C290.06 326.72 289.97 326.28 289.88 325.83C289.85 325.66 289.82 325.49 289.79 325.32C289.72 324.91 289.65 324.49 289.59 324.07C289.57 323.89 289.55 323.72 289.53 323.54C289.48 323.11 289.44 322.68 289.41 322.24C289.4 322.08 289.38 321.93 289.37 321.77C289.34 321.18 289.32 320.59 289.32 320C289.32 303.08 303.08 289.32 320 289.32C320.59 289.32 321.18 289.34 321.76 289.37C321.93 289.38 322.09 289.4 322.25 289.41C322.68 289.44 323.11 289.48 323.53 289.53C323.72 289.55 323.9 289.57 324.08 289.6C324.49 289.65 324.9 289.72 325.31 289.79C325.49 289.82 325.67 289.85 325.84 289.88C326.27 289.97 326.7 290.06 327.13 290.16C338.32 292.84 347.16 301.66 349.84 312.86C349.94 313.29 350.04 313.73 350.12 314.17C350.16 314.34 350.19 314.51 350.22 314.69C350.29 315.1 350.35 315.52 350.41 315.93C350.43 316.11 350.46 316.29 350.48 316.47C350.53 316.9 350.56 317.33 350.6 317.76C350.61 317.92 350.62 318.08 350.63 318.24C350.67 318.83 350.69 319.42 350.69 320C350.69 336.92 336.92 350.69 320 350.69C319.41 350.69 318.82 350.67 318.24 350.63C318.08 350.62 317.92 350.61 317.76 350.6ZM338.94 365.7C339.34 365.53 339.74 365.35 340.13 365.17C340.48 365.02 340.83 364.86 341.17 364.7C341.57 364.51 341.96 364.31 342.35 364.11C342.68 363.94 343.02 363.78 343.35 363.6C343.74 363.39 344.13 363.16 344.52 362.94C344.83 362.76 345.15 362.59 345.46 362.4C345.85 362.16 346.23 361.91 346.62 361.67C346.91 361.48 347.21 361.29 347.5 361.1C347.9 360.83 348.28 360.55 348.67 360.28C348.94 360.09 349.21 359.9 349.48 359.7C349.89 359.4 350.28 359.08 350.68 358.76C350.91 358.58 351.15 358.4 351.38 358.21C351.84 357.84 352.27 357.45 352.71 357.06C352.88 356.92 353.05 356.78 353.21 356.63C354.41 355.55 355.55 354.41 356.63 353.21C356.78 353.05 356.92 352.88 357.07 352.71C357.45 352.27 357.84 351.83 358.21 351.38C358.4 351.15 358.58 350.91 358.77 350.68C359.08 350.28 359.4 349.89 359.7 349.48C359.9 349.21 360.09 348.94 360.28 348.67C360.55 348.28 360.83 347.9 361.1 347.5C361.29 347.21 361.48 346.91 361.67 346.62C361.91 346.23 362.16 345.85 362.4 345.46C362.59 345.15 362.76 344.83 362.94 344.51C363.16 344.13 363.39 343.74 363.6 343.35C363.78 343.02 363.94 342.68 364.11 342.35C364.31 341.96 364.51 341.57 364.7 341.17C364.86 340.83 365.02 340.48 365.17 340.13C365.35 339.74 365.53 339.34 365.69 338.94C365.73 338.84 365.78 338.75 365.82 338.65C368.99 343.63 384.83 368.53 413.34 413.34L338.66 365.82C338.78 365.76 338.88 365.72 338.94 365.7Z" id="fjqjfe0L0"></path></defs><g><g><g><use xlink:href="#a15tdXmx5d" opacity="1" fill="#ffffff" fill-opacity="1"></use><g><use xlink:href="#a15tdXmx5d" opacity="1" fill-opacity="0" stroke="#000000" stroke-width="1" stroke-opacity="0"></use></g></g><g><use xlink:href="#c1UYfdpFaO" opacity="1" fill="#ffffff" fill-opacity="1"></use><g><use xlink:href="#c1UYfdpFaO" opacity="1" fill-opacity="0" stroke="#000000" stroke-width="1" stroke-opacity="0"></use></g></g><g><use xlink:href="#d16MBisZRz" opacity="1" fill="#ffffff" fill-opacity="1"></use><g><use xlink:href="#d16MBisZRz" opacity="1" fill-opacity="0" stroke="#000000" stroke-width="1" stroke-opacity="0"></use></g></g><g><use xlink:href="#a4shfkioVr" opacity="1" fill="#ffffff" fill-opacity="1"></use><g><use xlink:href="#a4shfkioVr" opacity="1" fill-opacity="0" stroke="#000000" stroke-width="1" stroke-opacity="0"></use></g></g><g><use xlink:href="#a1eJsp0QYJ" opacity="1" fill="#ffffff" fill-opacity="1"></use><g><use xlink:href="#a1eJsp0QYJ" opacity="1" fill-opacity="0" stroke="#000000" stroke-width="1" stroke-opacity="0"></use></g></g><g><use xlink:href="#dAv50IJ" opacity="1" fill="#ffffff" fill-opacity="1"></use><g><use xlink:href="#dAv50IJ" opacity="1" fill-opacity="0" stroke="#000000" stroke-width="1" stroke-opacity="0"></use></g></g><g><use xlink:href="#a3KgpeEas1" opacity="1" fill="#ffffff" fill-opacity="1"></use><g><use xlink:href="#a3KgpeEas1" opacity="1" fill-opacity="0" stroke="#000000" stroke-width="1" stroke-opacity="0"></use></g></g><g><use xlink:href="#c84Ptfhmsf" opacity="1" fill="#ffffff" fill-opacity="1"></use><g><use xlink:href="#c84Ptfhmsf" opacity="1" fill-opacity="0" stroke="#000000" stroke-width="1" stroke-opacity="0"></use></g></g><g><use xlink:href="#aP2nplT8Q" opacity="1" fill="#ffffff" fill-opacity="1"></use><g><use xlink:href="#aP2nplT8Q" opacity="1" fill-opacity="0" stroke="#000000" stroke-width="1" stroke-opacity="0"></use></g></g><g><use xlink:href="#b7KmCg72V" opacity="1" fill="#ffffff" fill-opacity="1"></use><g><use xlink:href="#b7KmCg72V" opacity="1" fill-opacity="0" stroke="#000000" stroke-width="1" stroke-opacity="0"></use></g></g><g><use xlink:href="#c6fvk8iIr" opacity="1" fill="#ffffff" fill-opacity="1"></use><g><use xlink:href="#c6fvk8iIr" opacity="1" fill-opacity="0" stroke="#000000" stroke-width="1" stroke-opacity="0"></use></g></g><g><use xlink:href="#fjqjfe0L0" opacity="1" fill="#ffffff" fill-opacity="1"></use><g><use xlink:href="#fjqjfe0L0" opacity="1" fill-opacity="0" stroke="#000000" stroke-width="1" stroke-opacity="0"></use></g></g></g></g></svg>