<svg width="454.815" height="454.815" xmlns="http://www.w3.org/2000/svg" xml:space="preserve" version="1.1">

 <g>
  <title>Layer 1</title>
  <g id="svg_1">
   <path fill="#ffffff" id="svg_2" d="m320.021,92.61c-35.843,0 -68.447,14.091 -92.613,36.98c-24.169,-22.896 -56.767,-36.98 -92.609,-36.98c-74.329,0 -134.799,60.47 -134.799,134.801c0,74.322 60.47,134.795 134.798,134.795c35.843,0 68.44,-14.091 92.609,-36.983c24.166,22.898 56.771,36.983 92.613,36.983c74.322,0 134.795,-60.473 134.795,-134.795c0,-74.331 -60.472,-134.801 -134.794,-134.801zm-185.223,257.49c-67.658,0 -122.693,-55.047 -122.693,-122.689c0,-67.651 55.041,-122.695 122.693,-122.695c32.58,0 62.16,12.85 84.143,33.641c-20.965,23.768 -33.727,54.947 -33.727,89.055c0,34.117 12.761,65.29 33.727,89.063c-21.983,20.775 -51.563,33.625 -84.143,33.625zm62.521,-122.689c0,-30.683 11.405,-58.708 30.088,-80.241c18.682,21.533 30.089,49.559 30.089,80.241c0,30.677 -11.407,58.706 -30.089,80.232c-18.683,-21.526 -30.088,-49.556 -30.088,-80.232zm122.702,122.689c-32.58,0 -62.164,-12.85 -84.146,-33.638c20.965,-23.773 33.727,-54.946 33.727,-89.063c0,-34.111 -12.762,-65.287 -33.727,-89.055c21.987,-20.791 51.565,-33.641 84.146,-33.641c67.654,0 122.689,55.042 122.689,122.696c0,67.643 -55.035,122.701 -122.689,122.701zm-84.583,-179.435l-17.901,0l0,-6.053l17.901,0l0,6.053zm-16.261,113.489l17.904,0l0,6.053l-17.904,0l0,-6.053zm28.626,-92.051l-39.345,0l0,-6.053l39.345,0l0,6.053zm3.783,19.417l-50.053,0l0,-6.052l50.053,0l0,6.052zm1.761,13.872l0,6.05l-51.881,0l0,-6.05l51.881,0zm-49.296,19.775l46.695,0l0,6.053l-46.695,0l0,-6.053zm4.407,19.316l35.562,0l0,6.053l-35.562,0l0,-6.053z"/>
  </g>
  <g id="svg_3"/>
  <g id="svg_4"/>
  <g id="svg_5"/>
  <g id="svg_6"/>
  <g id="svg_7"/>
  <g id="svg_8"/>
  <g id="svg_9"/>
  <g id="svg_10"/>
  <g id="svg_11"/>
  <g id="svg_12"/>
  <g id="svg_13"/>
  <g id="svg_14"/>
  <g id="svg_15"/>
  <g id="svg_16"/>
  <g id="svg_17"/>
 </g>
</svg>