<svg xmlns="http://www.w3.org/2000/svg" width="512" height="512" style="enable-background:new 0 0 512 512" xml:space="preserve"><g xmlns="http://www.w3.org/2000/svg"><path d="M212.063 100h87.873a17.477 17.477 0 0 0 15.406-9.2 17.478 17.478 0 0 0-.792-17.928l-12.898-19.577a7.499 7.499 0 0 0-10.389-2.137 7.5 7.5 0 0 0-2.137 10.389l12.898 19.577c.715 1.085.378 2.071.113 2.562-.264.491-.902 1.314-2.201 1.314h-87.873c-1.299 0-1.937-.823-2.201-1.314-.265-.49-.602-1.477.113-2.562l42.211-64.07C253.034 15.768 254.459 15 256 15s2.966.768 3.813 2.054l9.938 15.084a7.497 7.497 0 0 0 10.389 2.137 7.5 7.5 0 0 0 2.137-10.389l-9.938-15.084C268.708 3.29 262.6 0 256 0s-12.708 3.29-16.339 8.802l-42.211 64.07a17.478 17.478 0 0 0-.792 17.928 17.475 17.475 0 0 0 15.405 9.2zM299.937 412h-87.873a17.477 17.477 0 0 0-15.406 9.2 17.476 17.476 0 0 0 .793 17.928l11.196 16.994a7.498 7.498 0 0 0 10.389 2.137 7.5 7.5 0 0 0 2.137-10.389l-11.196-16.994c-.715-1.085-.378-2.071-.113-2.562.264-.491.902-1.314 2.201-1.314h87.873c1.299 0 1.937.823 2.201 1.314.265.49.602 1.477-.113 2.562l-42.211 64.07c-.849 1.286-2.274 2.054-3.815 2.054s-2.965-.768-3.813-2.054l-11.789-17.894a7.498 7.498 0 0 0-10.389-2.137 7.5 7.5 0 0 0-2.137 10.389l11.788 17.893c3.63 5.512 9.739 8.803 16.339 8.803s12.708-3.29 16.339-8.802l42.211-64.07a17.478 17.478 0 0 0 .792-17.928 17.473 17.473 0 0 0-15.404-9.2zM386 120H126c-9.649 0-17.5 7.851-17.5 17.5v20c0 9.649 7.851 17.5 17.5 17.5h36.596c4.142 0 7.5-3.357 7.5-7.5s-3.358-7.5-7.5-7.5H126a2.503 2.503 0 0 1-2.5-2.5v-20c0-1.379 1.122-2.5 2.5-2.5h260c1.378 0 2.5 1.121 2.5 2.5v20c0 1.379-1.122 2.5-2.5 2.5H197.596c-4.142 0-7.5 3.357-7.5 7.5s3.358 7.5 7.5 7.5H386c9.649 0 17.5-7.851 17.5-17.5v-20c0-9.649-7.851-17.5-17.5-17.5zM386 193H126c-9.649 0-17.5 7.851-17.5 17.5v20c0 9.649 7.851 17.5 17.5 17.5h260c9.649 0 17.5-7.851 17.5-17.5v-20c0-9.649-7.851-17.5-17.5-17.5zm2.5 37.5c0 1.379-1.122 2.5-2.5 2.5H126a2.503 2.503 0 0 1-2.5-2.5v-20c0-1.379 1.122-2.5 2.5-2.5h260c1.378 0 2.5 1.121 2.5 2.5zM386 266h-48.5c-4.142 0-7.5 3.357-7.5 7.5s3.358 7.5 7.5 7.5H386c1.378 0 2.5 1.121 2.5 2.5v20c0 1.379-1.122 2.5-2.5 2.5H126a2.503 2.503 0 0 1-2.5-2.5v-20c0-1.379 1.122-2.5 2.5-2.5h176.5c4.142 0 7.5-3.357 7.5-7.5s-3.358-7.5-7.5-7.5H126c-9.649 0-17.5 7.851-17.5 17.5v20c0 9.649 7.851 17.5 17.5 17.5h260c9.649 0 17.5-7.851 17.5-17.5v-20c0-9.649-7.851-17.5-17.5-17.5zM386 339H126c-9.649 0-17.5 7.851-17.5 17.5v20c0 9.649 7.851 17.5 17.5 17.5h260c9.649 0 17.5-7.851 17.5-17.5v-20c0-9.649-7.851-17.5-17.5-17.5zm2.5 37.5c0 1.379-1.122 2.5-2.5 2.5H126a2.503 2.503 0 0 1-2.5-2.5v-20c0-1.379 1.122-2.5 2.5-2.5h260c1.378 0 2.5 1.121 2.5 2.5z" data-original="#000000"/></g></svg>