<svg width="512" height="512" xmlns="http://www.w3.org/2000/svg" enable-background="new 0 0 512 512">

 <g>
  <title>Layer 1</title>
  <g id="XMLID_1334_">
   <g id="XMLID_532_">
    <path fill="#ffffff" d="m338,131.934c17.645,0 32,-14.355 32,-32s-14.355,-32 -32,-32s-32,14.355 -32,32s14.355,32 32,32zm0,-44c6.617,0 12,5.383 12,12s-5.383,12 -12,12s-12,-5.383 -12,-12s5.383,-12 12,-12z" id="XMLID_1098_"/>
    <path fill="#ffffff" d="m507.435,21.612c-2.848,-1.844 -6.435,-2.118 -9.527,-0.73l-90.186,40.45c-3.54,-6.374 -7.996,-12.358 -13.379,-17.741c-31.068,-31.067 -81.619,-31.067 -112.687,0c-5.382,5.383 -9.838,11.367 -13.378,17.741l-90.185,-40.45c-2.603,-1.167 -5.581,-1.167 -8.185,0l-164,73.558c-3.595,1.611 -5.908,5.183 -5.908,9.123l0,364.432c0,3.391 1.719,6.551 4.565,8.394c1.645,1.065 3.535,1.606 5.436,1.606c1.39,0 2.785,-0.29 4.092,-0.875l137.252,-61.56c3.946,2.028 8.189,3.556 12.656,4.471l0,61.964c0,5.523 4.477,10 10,10s10,-4.477 10,-10l0,-61.964c4.467,-0.915 8.71,-2.443 12.656,-4.471l137.251,61.56c1.301,0.583 2.697,0.875 4.092,0.875s2.791,-0.292 4.092,-0.875l164,-73.558c3.595,-1.612 5.908,-5.185 5.908,-9.124l0,-364.432c0,-3.392 -1.719,-6.552 -4.565,-8.394zm-211.636,36.121c11.635,-11.636 26.918,-17.452 42.201,-17.452s30.566,5.817 42.201,17.453c20.57,20.569 23.347,52.765 6.603,76.553l-48.804,69.334l-48.804,-69.335c-16.744,-23.788 -13.967,-55.984 6.603,-76.553zm-275.799,52.304l154,-69.072l86.835,38.947c-2.139,8.233 -2.93,16.757 -2.372,25.24l-80.371,-36.048c-2.604,-1.168 -5.581,-1.168 -8.185,0l-120,53.823c-3.595,1.612 -5.908,5.185 -5.908,9.124l0,267.986c0,3.391 1.719,6.551 4.565,8.394c1.645,1.065 3.535,1.606 5.436,1.606c1.39,0 2.785,-0.29 4.092,-0.876l66.797,-29.96c1.314,8.193 4.634,15.723 9.442,22.069l-114.331,51.28l0,-342.513zm183.747,261.257c0,16.402 -13.344,29.747 -29.747,29.747s-29.747,-13.344 -29.747,-29.747s13.344,-29.747 29.747,-29.747s29.747,13.345 29.747,29.747zm288.253,16.669l-154,69.072l-124.331,-55.765c4.808,-6.347 8.128,-13.876 9.442,-22.069l110.797,49.695c1.302,0.583 2.697,0.875 4.092,0.875s2.791,-0.292 4.092,-0.875l120,-53.823c3.595,-1.612 5.908,-5.185 5.908,-9.125l0,-71.948c0,-5.523 -4.477,-10 -10,-10s-10,4.477 -10,10l0,65.474l-110,49.337l-116.479,-52.242c-6.292,-20.264 -25.215,-35.022 -47.521,-35.022s-41.229,14.758 -47.521,35.021l-62.479,28.024l0,-246.066l110,-49.337l90.02,40.376c2.265,5.629 5.194,11.081 8.821,16.234l56.981,80.953c1.873,2.661 4.923,4.244 8.177,4.244s6.305,-1.583 8.177,-4.244l56.981,-80.953c3.627,-5.153 6.556,-10.604 8.821,-16.234l36.022,-16.157l0,90.592c0,5.523 4.477,10 10,10s10,-4.477 10,-10l0,-106.037c0,-3.391 -1.719,-6.551 -4.565,-8.394c-2.847,-1.844 -6.435,-2.117 -9.527,-0.73l-36.371,16.313c0.558,-8.483 -0.233,-17.007 -2.372,-25.24l76.835,-34.462l0,342.513z" id="XMLID_1101_"/>
    <path fill="#ffffff" d="m458,239c-2.63,0 -5.21,1.07 -7.07,2.93s-2.93,4.44 -2.93,7.07s1.07,5.21 2.93,7.07s4.44,2.93 7.07,2.93s5.21,-1.07 7.07,-2.93s2.93,-4.44 2.93,-7.07s-1.07,-5.21 -2.93,-7.07s-4.44,-2.93 -7.07,-2.93z" id="XMLID_1280_"/>
    <path fill="#ffffff" d="m172.148,270.129c-5.457,0.852 -9.189,5.966 -8.337,11.423c0.126,0.805 0.189,1.626 0.189,2.442c0,5.523 4.477,10 10,10s10,-4.477 10,-10c0,-1.846 -0.144,-3.706 -0.429,-5.528c-0.852,-5.456 -5.964,-9.192 -11.423,-8.337z" id="XMLID_1327_"/>
    <path fill="#ffffff" d="m277.159,268.384l-5.946,-4.905c-4.259,-3.514 -10.563,-2.909 -14.078,1.35c-3.515,4.26 -2.91,10.563 1.35,14.078l5.946,4.905c1.863,1.537 4.117,2.287 6.358,2.287c2.882,0 5.742,-1.24 7.719,-3.637c3.516,-4.261 2.911,-10.564 -1.349,-14.078z" id="XMLID_1328_"/>
    <path fill="#ffffff" d="m214.173,184.989c-3.119,-4.557 -9.342,-5.723 -13.9,-2.604c-4.558,3.12 -5.724,9.343 -2.604,13.9l4.354,6.361c1.938,2.831 5.072,4.353 8.261,4.353c1.946,0 3.912,-0.567 5.639,-1.749c4.558,-3.12 5.724,-9.343 2.604,-13.9l-4.354,-6.361z" id="XMLID_1329_"/>
    <path fill="#ffffff" d="m242.47,226.334c-3.12,-4.557 -9.343,-5.722 -13.9,-2.604c-4.558,3.12 -5.724,9.343 -2.604,13.9l4.354,6.361c1.938,2.831 5.072,4.353 8.261,4.353c1.946,0 3.913,-0.567 5.639,-1.749c4.558,-3.12 5.724,-9.343 2.604,-13.9l-4.354,-6.361z" id="XMLID_1330_"/>
    <path fill="#ffffff" d="m311.846,288.064c-1.676,0.313 -3.386,0.408 -5.066,0.28c-5.515,-0.427 -10.313,3.698 -10.736,9.205s3.699,10.313 9.205,10.736c0.992,0.076 2,0.115 2.995,0.115c2.432,0 4.883,-0.229 7.287,-0.679c5.428,-1.017 9.004,-6.243 7.987,-11.671c-1.018,-5.429 -6.244,-9.003 -11.672,-7.986z" id="XMLID_1331_"/>
    <path fill="#ffffff" d="m184.3,149.716c-2.704,-1.635 -5.572,-3.037 -8.525,-4.164c-5.161,-1.97 -10.94,0.616 -12.909,5.775c-1.97,5.16 0.616,10.939 5.775,12.909c1.839,0.702 3.625,1.574 5.307,2.592c1.619,0.979 3.404,1.445 5.167,1.445c3.384,0 6.686,-1.718 8.565,-4.825c2.859,-4.725 1.345,-10.873 -3.38,-13.732z" id="XMLID_1429_"/>
    <path fill="#ffffff" d="m149.966,242.884l-0.667,-0.417c-1.646,-1.028 -3.252,-2.157 -4.775,-3.356c-4.34,-3.417 -10.627,-2.668 -14.043,1.671c-3.417,4.339 -2.668,10.626 1.671,14.043c2.089,1.645 4.292,3.194 6.548,4.604l0.667,0.417c1.648,1.03 3.479,1.521 5.29,1.521c3.333,0 6.593,-1.667 8.49,-4.702c2.927,-4.685 1.502,-10.855 -3.181,-13.781z" id="XMLID_1432_"/>
    <path fill="#ffffff" d="m124.379,203.207c-0.655,-5.484 -5.635,-9.399 -11.115,-8.744c-5.484,0.655 -9.399,5.631 -8.744,11.115c0.352,2.94 0.886,5.89 1.588,8.766c1.116,4.568 5.205,7.629 9.707,7.629c0.786,0 1.584,-0.093 2.381,-0.288c5.365,-1.311 8.652,-6.723 7.341,-12.088c-0.513,-2.096 -0.902,-4.246 -1.158,-6.39z" id="XMLID_1437_"/>
    <path fill="#ffffff" d="m137.698,168.254c4.484,-3.224 5.506,-9.473 2.282,-13.957c-3.225,-4.485 -9.473,-5.506 -13.957,-2.282c-2.566,1.845 -4.98,3.934 -7.176,6.209c-3.836,3.974 -3.724,10.304 0.25,14.14c1.941,1.874 4.443,2.805 6.944,2.805c2.618,0 5.234,-1.022 7.196,-3.055c1.365,-1.415 2.866,-2.713 4.461,-3.86z" id="XMLID_1438_"/>
    <path fill="#ffffff" d="m338,253.495c-5.523,0 -10,4.477 -10,10l0,4c0,5.523 4.477,10 10,10s10,-4.477 10,-10l0,-4c0,-5.523 -4.477,-10 -10,-10z" id="XMLID_1439_"/>
   </g>
  </g>
 </g>
</svg>